<svg xmlns="http://www.w3.org/2000/svg" version="1.1" xmlns:xlink="http://www.w3.org/1999/xlink" xmlns:svgjs="http://svgjs.dev/svgjs" viewBox="0 0 52 32"><path d="M1 2.5C1 1.5 1.5 1 2.5 1L49.5 1C50.5 1 51 1.5 51 2.5L51 29.5C51 30.5 50.5 31 49.5 31L2.5 31C1.5 31 1 30.5 1 29.5Z " fill="#000000" stroke-width="0.25" stroke="#222222"/><svg width="2" height="0" style="opacity: 0; position: absolute; left: -100%; top: -100%; overflow: hidden;" focusable="false" aria-hidden="true"><path d="M0 1.5C0 0.5 0.5 0 1.5 0L48.5 0C49.5 0 50 0.5 50 1.5L50 28.5C50 29.5 49.5 30 48.5 30L1.5 30C0.5 30 0 29.5 0 28.5Z "/></svg><svg viewBox="1 1 48 28" width="50" height="28.26086956521739" x="1" y="1.5"><path d="M 2 3 A 1 1 0 0 1 3 2 L 47 2 A 1 1 0 0 1 48 3 L 48 27 A 1 1 0 0 1 47 28 L 3 28 A 1 1 0 0 1 2 27 L 2 3 Z" stroke="#00b3ac" stroke-width="0.15" fill="none"/></svg><svg viewBox="42 18 170 40" width="20" height="3.4399999999999995" x="2" y="4"><path d="m44.851562 19.238281h19.296876v6.632813h-8.5v5.609375h7.480468v6.121093h-7.480468v9.773438h-10.796876z" fill="#fff"/><path d="m64.488281 26.039062v21.335938h10.453125v-14.363281h3.742188v-7.480469c-2.125 0-3.0625.339844-4.421875 1.785156v-1.277344z" fill="#fff"/><path d="m91.347656 47.375h9.605469v-16.914062c0-2.722657-1.273437-4.929688-5.441406-4.929688h-10.113281c-3.402344 0-5.867188 1.699219-5.867188 4.757812v2.804688h9.777344v-3.3125h2.039062v5.097656h-7.988281c-2.890625 0-4.589844 2.636719-4.589844 5.015625v2.71875c0 1.871094 1.527344 4.761719 4.078125 4.761719h6.289063v-9.519531h2.210937z" fill="#fff"/><path d="m115.574219 29.269531v18.105469h10.113281v-9.859375h-6.457031v-2.039063h6.457031v-5.695312c0-2.042969-.847656-4.167969-4.332031-4.167969h-3.65625c-2.296875 0-3.996094 1.023438-4.421875 2.125v-1.785156h-10.027344v21.421875h10.199219v-18.105469z" fill="#fff"/><path d="m128.070312 19.15625h9.605469v13.003906l3.90625-6.207031h9.777344l-5.953125 9.523437h-17.335938z" fill="#fff"/><path d="m128.070312 47.375h9.519532v-9.859375h-9.519532zm0 0" fill="#fff"/><path d="m139.96875 47.375h9.859375v-9.859375h-9.859375zm0 0" fill="#fff"/><path d="m152.207031 37.515625h9.859375v9.859375h-9.859375zm0 0" fill="#fff"/><path d="m152.207031 19.15625h9.859375v16.320312h-9.859375zm0 0" fill="#fff"/><path d="m164.449219 37.515625h9.773437v9.859375h-9.773437zm0 0" fill="#fff"/><path d="m164.449219 25.953125h9.773437v9.523437h-9.773437zm0 0" fill="#fff"/><path d="m204.332031 27.625v-1.441406h.675781c.398438 0 .6875.058594.871094.179687.179688.117188.269532.308594.269532.570313 0 .242187-.085938.417968-.257813.527344-.171875.109374-.457031.164062-.859375.164062zm2.394531-.007812c.179688-.207032.269532-.464844.269532-.773438 0-.398438-.15625-.695312-.460938-.898438-.308594-.199218-.769531-.296874-1.378906-.296874h-1.65625v4.371093h.832031v-1.875h.8125l.890625 1.875h.9375l-.988281-2.003906c.316406-.054687.566406-.1875.742187-.398437zm1.457032 1.59375c-.167969.398437-.40625.753906-.71875 1.0625-.328125.316406-.699219.558593-1.121094.726562-.417969.171875-.855469.253906-1.3125.253906-.429688 0-.851562-.085937-1.265625-.261718-.410156-.171876-.777344-.417969-1.097656-.734376-.3125-.3125-.554688-.667968-.726563-1.078124-.171875-.40625-.257812-.828126-.257812-1.265626 0-.445312.089844-.878906.265625-1.292968.175781-.414063.425781-.785156.75-1.109375.304687-.304688.664062-.539063 1.066406-.703125.40625-.164063.835937-.246094 1.296875-.246094.453125 0 .886719.082031 1.304688.253906.414062.167969.78125.40625 1.097656.71875.316406.320313.558594.683594.726562 1.09375.164063.410156.246094.847656.246094 1.316406 0 .441407-.085938.863282-.253906 1.265626zm-4.8125-4.777344c-.515625.25-.960938.613281-1.332032 1.085937-.269531.351563-.476562.730469-.617187 1.140625-.144531.40625-.210937.824219-.210937 1.246094 0 .507812.09375.992188.289062 1.457031.191406.464844.46875.878907.832031 1.242188.371094.375.789063.660156 1.261719.859375.472656.195312.960938.296875 1.46875.296875.496094 0 .980469-.101563 1.453125-.296875.46875-.195313.894531-.480469 1.273437-.847656.367188-.351563.644532-.761719.835938-1.226563s.289062-.960937.289062-1.484375c0-.601562-.128906-1.167969-.390624-1.703125-.257813-.53125-.625-.980469-1.09375-1.347656-.339844-.261719-.707032-.460938-1.113282-.597657-.402344-.136718-.820312-.203124-1.253906-.203124-.609375 0-1.171875.125-1.691406.378906" fill="#fff"/><path d="m188.929688 37.515625h10.113281v9.859375h-10.113281zm0 0" fill="#fff"/><path d="m176.605469 35.476562v-9.523437h10.027343v1.785156c.425782-1.101562 2.125-2.125 4.421876-2.125h3.652343c3.488281 0 4.335938 2.125 4.335938 4.167969v5.695312h-10.113281v-6.207031h-2.125v6.207031z" fill="#fff"/><path d="m176.605469 37.515625h10.199219v9.859375h-10.199219zm0 0" fill="#fff"/></svg><svg width="18" height="4.599321702264003" viewBox="0 0 180 50" version="1.2" x="30.5" y="25.25">
<g transform="translate(-220,-615)">
<path style="fill-rule:nonzero;fill: #fff;fill-opacity:1;stroke-width:0.993;stroke-linecap:butt;stroke-linejoin:miter;stroke: #00b3ac;stroke-opacity:1;stroke-miterlimit:4;" d="M 166.400594 24.727593 L 211.602325 24.727593 L 211.602325 48.073455 L 166.400594 48.073455 Z M 166.400594 24.727593 " transform="matrix(1.859805,0,0,-1.840195,0,706.57)"/>
<path style="fill:none;stroke-width:1.609;stroke-linecap:round;stroke-linejoin:round;stroke: #00b3ac;stroke-opacity:1;stroke-miterlimit:4;" d="M 165.215994 36.152164 L 174.01858 36.152164 L 175.829086 42.127669 L 177.639591 29.272373 L 179.811358 36.152164 L 186.511489 36.152164 L 188.321995 42.308101 L 190.1325 29.454929 L 192.123637 36.152164 L 198.279776 36.152164 L 200.090282 42.308101 L 202.62541 29.454929 L 204.435915 36.515152 L 211.486806 36.515152 " transform="matrix(1.859805,0,0,-1.840195,0,706.57)"/>
<path style="fill-rule:nonzero;fill: #00b3ac;stroke-width:0.993;stroke-linecap:butt;stroke-linejoin:miter;stroke: #00b3ac;stroke-opacity:1;stroke-miterlimit:4;" d="M 121.198862 24.727593 L 166.896277 24.727593 L 166.896277 48.073455 L 121.198862 48.073455 Z M 121.198862 24.727593 " transform="matrix(1.859805,0,0,-1.840195,0,706.57)"/>
<g>
  <path fill="#fff" transform="translate(229.097155,652.836195)" d="M 3.203125 -23.4375 C 3.5 -23.328125 3.71875 -23.1875 3.859375 -22.984375 C 4 -22.765625 4.078125 -22.125 4.109375 -21.03125 C 4.15625 -19.515625 4.171875 -17.96875 4.171875 -16.40625 L 4.171875 -8.34375 C 4.140625 -5.28125 4.09375 -3.640625 4.09375 -3.390625 C 4.0625 -2.484375 3.96875 -1.9375 3.828125 -1.703125 C 3.71875 -1.53125 3.5 -1.390625 3.203125 -1.28125 C 2.890625 -1.1875 2.046875 -1.125 0.671875 -1.109375 L 0.671875 0 L 5.046875 -0.140625 L 9.296875 0 L 9.296875 -1.109375 C 7.875 -1.125 7.03125 -1.1875 6.734375 -1.28125 C 6.4375 -1.390625 6.234375 -1.546875 6.09375 -1.765625 C 5.953125 -1.96875 5.875 -2.609375 5.84375 -3.71875 C 5.78125 -5.21875 5.765625 -6.75 5.765625 -8.34375 L 5.765625 -20.546875 L 14.1875 -3.25 L 15.375 -0.734375 C 15.5 -0.453125 15.640625 -0.109375 15.796875 0.328125 L 16.484375 0.328125 C 17.265625 -1.546875 17.859375 -2.9375 18.25 -3.8125 C 18.765625 -5 19.53125 -6.578125 20.484375 -8.546875 L 26.546875 -21.125 L 26.546875 -8.34375 C 26.5 -5.28125 26.453125 -3.640625 26.453125 -3.390625 C 26.421875 -2.484375 26.34375 -1.9375 26.203125 -1.703125 C 26.09375 -1.53125 25.875 -1.390625 25.578125 -1.28125 C 25.265625 -1.1875 24.421875 -1.125 23.03125 -1.109375 L 23.03125 0 C 25.703125 -0.109375 27.453125 -0.15625 28.234375 -0.15625 C 29.203125 -0.15625 30.875 -0.109375 33.25 0 L 33.25 -1.109375 C 31.84375 -1.125 31 -1.1875 30.703125 -1.28125 C 30.40625 -1.390625 30.1875 -1.546875 30.046875 -1.765625 C 29.90625 -1.96875 29.84375 -2.609375 29.796875 -3.71875 C 29.75 -5.21875 29.734375 -6.75 29.734375 -8.34375 L 29.734375 -16.40625 C 29.765625 -19.46875 29.796875 -21.09375 29.828125 -21.34375 C 29.84375 -22.234375 29.921875 -22.796875 30.078125 -23.03125 C 30.1875 -23.203125 30.40625 -23.328125 30.703125 -23.4375 C 31 -23.53125 31.84375 -23.59375 33.25 -23.625 L 33.25 -24.734375 C 31.484375 -24.6875 30.203125 -24.671875 29.4375 -24.671875 C 28.578125 -24.671875 27.515625 -24.6875 26.28125 -24.734375 C 25.71875 -23.296875 24.625 -20.875 23 -17.5 L 16.984375 -5.046875 L 10.3125 -18.625 C 9.453125 -20.375 8.5 -22.40625 7.484375 -24.734375 C 6.421875 -24.6875 5.328125 -24.671875 4.203125 -24.671875 C 3.078125 -24.671875 1.90625 -24.6875 0.671875 -24.734375 L 0.671875 -23.625 C 2.0625 -23.59375 2.90625 -23.53125 3.203125 -23.4375 Z M 3.203125 -23.4375 "/>
  <path fill="#fff" transform="translate(263.1764,652.836195)" d="M 5.078125 -0.140625 L 10.1875 0 C 11.875 0 13.328125 -0.21875 14.5625 -0.703125 C 16.21875 -1.328125 17.5625 -2.28125 18.609375 -3.59375 C 19.671875 -4.890625 20.203125 -6.40625 20.203125 -8.125 C 20.203125 -9 20.03125 -9.78125 19.75 -10.5 C 19.453125 -11.1875 19.015625 -11.796875 18.453125 -12.296875 C 17.890625 -12.78125 17.1875 -13.15625 16.34375 -13.40625 C 15.5 -13.65625 14.390625 -13.84375 13.015625 -13.984375 C 14.046875 -14.21875 14.890625 -14.5 15.515625 -14.8125 C 16.15625 -15.125 16.734375 -15.53125 17.265625 -16.015625 C 17.78125 -16.5 18.1875 -17.09375 18.515625 -17.78125 C 18.828125 -18.4375 18.984375 -19.171875 18.984375 -19.9375 C 18.984375 -20.890625 18.71875 -21.765625 18.1875 -22.546875 C 17.65625 -23.328125 16.9375 -23.90625 16.03125 -24.25 C 15.09375 -24.59375 13.78125 -24.78125 12.0625 -24.78125 L 5.59375 -24.625 L 1.9375 -24.703125 C 1.34375 -24.703125 0.859375 -24.703125 0.46875 -24.734375 L 0.46875 -23.640625 C 1.6875 -23.625 2.5 -23.53125 2.890625 -23.375 C 3.046875 -23.3125 3.171875 -23.1875 3.25 -23.046875 C 3.359375 -22.8125 3.453125 -22.21875 3.5 -21.265625 C 3.578125 -19.71875 3.609375 -18.390625 3.609375 -17.25 L 3.609375 -6.75 C 3.609375 -6.15625 3.578125 -5.296875 3.515625 -4.15625 C 3.46875 -3.03125 3.40625 -2.296875 3.34375 -1.953125 C 3.296875 -1.71875 3.21875 -1.5625 3.15625 -1.484375 C 3.0625 -1.390625 2.65625 -1.171875 1.9375 -0.8125 L 1.9375 0 C 3.484375 -0.09375 4.515625 -0.140625 5.078125 -0.140625 Z M 6.953125 -18.609375 C 6.953125 -20.625 7 -22.109375 7.109375 -23.09375 C 7.984375 -23.265625 8.9375 -23.34375 9.9375 -23.34375 C 11.734375 -23.34375 13.09375 -23.015625 14.015625 -22.375 C 14.953125 -21.734375 15.421875 -20.6875 15.421875 -19.234375 C 15.421875 -18.40625 15.265625 -17.6875 14.984375 -17.078125 C 14.703125 -16.453125 14.34375 -15.96875 13.921875 -15.609375 C 13.46875 -15.25 12.859375 -14.953125 12.0625 -14.75 C 11.28125 -14.515625 10.15625 -14.421875 8.703125 -14.421875 C 8.203125 -14.421875 7.625 -14.4375 6.953125 -14.46875 Z M 6.953125 -6.4375 L 6.953125 -13.046875 C 7.71875 -13.078125 8.375 -13.109375 8.890625 -13.109375 C 11.0625 -13.109375 12.65625 -12.90625 13.59375 -12.5 C 14.546875 -12.09375 15.265625 -11.484375 15.765625 -10.65625 C 16.234375 -9.8125 16.484375 -8.8125 16.484375 -7.59375 C 16.484375 -6.359375 16.21875 -5.265625 15.703125 -4.3125 C 15.203125 -3.359375 14.484375 -2.640625 13.53125 -2.171875 C 12.578125 -1.703125 11.328125 -1.484375 9.78125 -1.484375 C 8.796875 -1.484375 7.875 -1.578125 7 -1.796875 C 6.96875 -4.25 6.953125 -5.796875 6.953125 -6.4375 Z M 6.953125 -6.4375 "/>
  <path fill="#fff" transform="translate(285.186137,652.836195)" d="M 7.453125 0.5 C 10.515625 0.5 13.03125 -0.34375 14.96875 -2.078125 C 16.90625 -3.78125 17.875 -5.796875 17.875 -8.109375 C 17.875 -9.09375 17.703125 -9.921875 17.359375 -10.65625 C 17.015625 -11.390625 16.59375 -11.953125 16.0625 -12.40625 C 15.53125 -12.859375 14.703125 -13.25 13.625 -13.578125 C 12.4375 -13.78125 11.125 -14 9.65625 -14.1875 C 8.1875 -14.375 7.125 -14.59375 6.484375 -14.8125 C 5.546875 -15.125 4.890625 -15.5625 4.546875 -16.109375 C 4.171875 -16.640625 4 -17.40625 4 -18.40625 C 4 -20.046875 4.484375 -21.359375 5.5 -22.390625 C 6.53125 -23.421875 7.875 -23.9375 9.59375 -23.9375 C 10.890625 -23.9375 12.15625 -23.59375 13.375 -22.921875 C 13.859375 -22.578125 14.265625 -22.21875 14.5625 -21.796875 C 14.640625 -21.625 14.6875 -20.65625 14.71875 -18.875 L 15.921875 -18.875 C 15.953125 -20.09375 16.015625 -21.03125 16.078125 -21.65625 C 16.15625 -22.28125 16.25 -22.984375 16.4375 -23.71875 C 15.40625 -24.203125 14.296875 -24.578125 13.125 -24.84375 C 11.953125 -25.109375 10.859375 -25.25 9.875 -25.25 C 8.21875 -25.25 6.671875 -24.890625 5.265625 -24.234375 C 3.859375 -23.5625 2.78125 -22.609375 2.0625 -21.390625 C 1.34375 -20.171875 0.984375 -18.890625 0.984375 -17.53125 C 0.984375 -16.59375 1.15625 -15.703125 1.515625 -14.90625 C 1.859375 -14.078125 2.34375 -13.421875 2.921875 -12.9375 C 3.484375 -12.4375 4.375 -12 5.609375 -11.625 C 6.53125 -11.421875 7.640625 -11.25 8.9375 -11.09375 C 10.234375 -10.921875 11.09375 -10.8125 11.546875 -10.734375 C 12.234375 -10.609375 12.8125 -10.359375 13.28125 -10.015625 C 13.734375 -9.65625 14.09375 -9.234375 14.328125 -8.671875 C 14.546875 -8.109375 14.671875 -7.453125 14.671875 -6.6875 C 14.671875 -5.671875 14.4375 -4.734375 13.984375 -3.859375 C 13.53125 -3 12.796875 -2.28125 11.8125 -1.734375 C 10.796875 -1.203125 9.71875 -0.9375 8.53125 -0.9375 C 7.71875 -0.9375 6.875 -1.0625 6.015625 -1.34375 C 5.140625 -1.625 4.453125 -1.9375 3.9375 -2.28125 C 3.40625 -2.625 3.09375 -2.9375 2.953125 -3.25 C 2.8125 -3.5625 2.734375 -4.5625 2.671875 -6.265625 L 1.484375 -6.265625 C 1.4375 -3.765625 1.3125 -1.96875 1.140625 -0.859375 C 3.03125 0.046875 5.140625 0.5 7.453125 0.5 Z M 7.453125 0.5 "/>
</g>
</g>
</svg><path font-size="7" font-family="BookmanCartridgeTitle" fill="#ffffff" svgjs:data="{&quot;leading&quot;:&quot;1.3&quot;}" d="M5.46 15.48L4.76 15.48L4.76 10.43L5.46 10.43L5.46 12.60L6.39 12.60L6.39 10.43L7.09 10.43L7.09 15.48L6.39 15.48L6.39 13.19L5.46 13.19L5.46 15.48Z"/><path font-size="7" font-family="BookmanCartridgeTitle" fill="#ffffff" svgjs:data="{&quot;leading&quot;:&quot;1.3&quot;}" d="M8.23 13.00L7.57 13.00L7.57 12.69Q7.57 11.93 8.51 11.93L8.51 11.93Q9.44 11.93 9.44 12.78L9.44 12.78L9.44 15.48L8.83 15.48L8.83 15.12Q8.78 15.16 8.73 15.23Q8.67 15.30 8.64 15.33L8.64 15.33Q8.45 15.52 8.17 15.52L8.17 15.52Q7.84 15.52 7.70 15.36L7.70 15.36Q7.52 15.15 7.52 14.56L7.52 14.56Q7.52 14.14 7.54 14.00L7.54 14.00Q7.59 13.69 7.76 13.51L7.76 13.51Q7.89 13.37 8.05 13.34L8.05 13.34Q8.25 13.29 8.78 13.29L8.78 13.29L8.78 12.72Q8.78 12.39 8.51 12.39L8.51 12.39Q8.23 12.39 8.23 12.68L8.23 12.68L8.23 13.00ZM8.78 14.66L8.78 13.75L8.57 13.75Q8.34 13.75 8.26 13.90Q8.18 14.05 8.18 14.47L8.18 14.47Q8.18 15.01 8.33 15.05L8.33 15.05Q8.37 15.06 8.44 15.06L8.44 15.06Q8.78 15.06 8.78 14.66L8.78 14.66Z"/><path font-size="7" font-family="BookmanCartridgeTitle" fill="#ffffff" svgjs:data="{&quot;leading&quot;:&quot;1.3&quot;}" d="M10.58 15.48L9.92 15.48L9.92 11.97L10.53 11.97L10.53 12.33L10.55 12.33Q10.66 12.09 10.78 12.01Q10.89 11.93 11.14 11.93L11.14 11.93L11.14 12.58Q10.58 12.58 10.58 13.04L10.58 13.04L10.58 15.48Z"/><path font-size="7" font-family="BookmanCartridgeTitle" fill="#ffffff" svgjs:data="{&quot;leading&quot;:&quot;1.3&quot;}" d="M12.00 15.48L11.35 15.48L11.35 11.97L11.96 11.97L11.96 12.33L11.98 12.33Q12.09 12.09 12.20 12.01Q12.32 11.93 12.56 11.93L12.56 11.93L12.56 12.58Q12.00 12.58 12.00 13.04L12.00 13.04L12.00 15.48Z"/><path font-size="7" font-family="BookmanCartridgeTitle" fill="#ffffff" svgjs:data="{&quot;leading&quot;:&quot;1.3&quot;}" d="M13.45 15.48L12.80 15.48L12.80 11.97L13.45 11.97L13.45 15.48ZM13.45 11.13L12.80 11.13L12.80 10.43L13.45 10.43L13.45 11.13Z"/><path font-size="7" font-family="BookmanCartridgeTitle" fill="#ffffff" svgjs:data="{&quot;leading&quot;:&quot;1.3&quot;}" d="M15.57 12.56L15.57 13.10L14.99 13.10L14.99 12.77Q14.99 12.39 14.76 12.39L14.76 12.39Q14.62 12.39 14.57 12.48L14.57 12.48Q14.53 12.54 14.53 12.71L14.53 12.71Q14.53 12.97 14.60 13.07Q14.66 13.18 15.00 13.47L15.00 13.47Q15.39 13.82 15.50 14.01Q15.61 14.20 15.61 14.58L15.61 14.58Q15.61 15.10 15.40 15.31Q15.19 15.52 14.67 15.52L14.67 15.52Q13.89 15.52 13.89 14.80L13.89 14.80L13.89 14.31L14.50 14.31L14.50 14.79Q14.50 15.06 14.75 15.06L14.75 15.06Q14.90 15.06 14.95 14.98Q14.99 14.89 14.99 14.67L14.99 14.67Q14.99 14.38 14.93 14.27Q14.87 14.15 14.59 13.91L14.59 13.91L14.45 13.79Q14.06 13.46 13.99 13.30L13.99 13.30Q13.92 13.17 13.92 12.80L13.92 12.80Q13.92 12.32 14.15 12.11L14.15 12.11Q14.36 11.93 14.83 11.93L14.83 11.93Q15.57 11.93 15.57 12.56L15.57 12.56Z"/><path font-size="7" font-family="BookmanCartridgeTitle" fill="#ffffff" svgjs:data="{&quot;leading&quot;:&quot;1.3&quot;}" d="M16.02 14.65L16.02 14.65L16.02 12.87Q16.02 12.42 16.26 12.17Q16.51 11.93 16.95 11.93L16.95 11.93Q17.88 11.93 17.88 12.80L17.88 12.80L17.88 14.58Q17.88 15.03 17.64 15.28Q17.39 15.52 16.95 15.52L16.95 15.52Q16.02 15.52 16.02 14.65ZM16.67 12.83L16.67 12.83L16.67 14.62Q16.67 15.06 16.95 15.06L16.95 15.06Q17.23 15.06 17.23 14.62L17.23 14.62L17.23 12.83Q17.23 12.39 16.95 12.39L16.95 12.39Q16.67 12.39 16.67 12.83Z"/><path font-size="7" font-family="BookmanCartridgeTitle" fill="#ffffff" svgjs:data="{&quot;leading&quot;:&quot;1.3&quot;}" d="M19.01 15.48L18.35 15.48L18.35 11.97L18.97 11.97L18.97 12.26L18.98 12.26Q19.19 11.93 19.59 11.93L19.59 11.93Q20.21 11.93 20.21 12.62L20.21 12.62L20.21 15.48L19.55 15.48L19.55 12.74Q19.55 12.43 19.30 12.43L19.30 12.43Q19.01 12.43 19.01 12.80L19.01 12.80L19.01 15.48Z"/><path font-size="7" font-family="BookmanCartridgeTitle" fill="#ffffff" svgjs:data="{&quot;leading&quot;:&quot;1.3&quot;}" d="M21.15 11.67L20.65 11.67L20.80 10.43L21.55 10.43L21.15 11.67Z"/><path font-size="7" font-family="BookmanCartridgeTitle" fill="#ffffff" svgjs:data="{&quot;leading&quot;:&quot;1.3&quot;}" d="M23.09 12.56L23.09 13.10L22.50 13.10L22.50 12.77Q22.50 12.39 22.27 12.39L22.27 12.39Q22.13 12.39 22.08 12.48L22.08 12.48Q22.05 12.54 22.05 12.71L22.05 12.71Q22.05 12.97 22.12 13.07Q22.18 13.18 22.52 13.47L22.52 13.47Q22.91 13.82 23.02 14.01Q23.13 14.20 23.13 14.58L23.13 14.58Q23.13 15.10 22.92 15.31Q22.71 15.52 22.19 15.52L22.19 15.52Q21.41 15.52 21.41 14.80L21.41 14.80L21.41 14.31L22.02 14.31L22.02 14.79Q22.02 15.06 22.27 15.06L22.27 15.06Q22.42 15.06 22.47 14.98Q22.51 14.89 22.51 14.67L22.51 14.67Q22.51 14.38 22.45 14.27Q22.39 14.15 22.11 13.91L22.11 13.91L21.96 13.79Q21.58 13.46 21.50 13.30L21.50 13.30Q21.43 13.17 21.43 12.80L21.43 12.80Q21.43 12.32 21.67 12.11L21.67 12.11Q21.88 11.93 22.34 11.93L22.34 11.93Q23.09 11.93 23.09 12.56L23.09 12.56Z"/><path font-size="7" font-family="BookmanCartridgeTitle" fill="#ffffff" svgjs:data="{&quot;leading&quot;:&quot;1.3&quot;}" d=""/><path font-size="7" font-family="BookmanCartridgeTitle" fill="#ffffff" svgjs:data="{&quot;leading&quot;:&quot;1.3&quot;}" d="M25.93 11.02L25.56 11.02L25.56 12.70L25.93 12.70Q26.28 12.70 26.37 12.56Q26.45 12.43 26.45 11.86L26.45 11.86Q26.45 11.28 26.37 11.15Q26.28 11.02 25.93 11.02L25.93 11.02ZM25.56 15.48L24.86 15.48L24.86 10.43L26.02 10.43Q26.72 10.43 26.94 10.70Q27.15 10.97 27.15 11.86L27.15 11.86Q27.15 12.74 26.94 13.01Q26.72 13.28 26.02 13.28L26.02 13.28L25.56 13.28L25.56 15.48Z"/><path font-size="7" font-family="BookmanCartridgeTitle" fill="#ffffff" svgjs:data="{&quot;leading&quot;:&quot;1.3&quot;}" d="M28.22 15.48L27.56 15.48L27.56 11.97L28.18 11.97L28.18 12.33L28.19 12.33Q28.31 12.09 28.42 12.01Q28.54 11.93 28.78 11.93L28.78 11.93L28.78 12.58Q28.22 12.58 28.22 13.04L28.22 13.04L28.22 15.48Z"/><path font-size="7" font-family="BookmanCartridgeTitle" fill="#ffffff" svgjs:data="{&quot;leading&quot;:&quot;1.3&quot;}" d="M29.67 15.48L29.01 15.48L29.01 11.97L29.67 11.97L29.67 15.48ZM29.67 11.13L29.01 11.13L29.01 10.43L29.67 10.43L29.67 11.13Z"/><path font-size="7" font-family="BookmanCartridgeTitle" fill="#ffffff" svgjs:data="{&quot;leading&quot;:&quot;1.3&quot;}" d="M30.83 15.48L30.17 15.48L30.17 11.97L30.78 11.97L30.78 12.26L30.80 12.26Q31.00 11.93 31.41 11.93L31.41 11.93Q32.02 11.93 32.02 12.62L32.02 12.62L32.02 15.48L31.37 15.48L31.37 12.74Q31.37 12.43 31.11 12.43L31.11 12.43Q30.83 12.43 30.83 12.80L30.83 12.80L30.83 15.48Z"/><path font-size="7" font-family="BookmanCartridgeTitle" fill="#ffffff" svgjs:data="{&quot;leading&quot;:&quot;1.3&quot;}" d="M32.41 14.65L32.41 14.65L32.41 12.87Q32.41 12.42 32.65 12.17Q32.90 11.93 33.33 11.93L33.33 11.93Q34.19 11.93 34.19 12.63L34.19 12.63L34.19 13.15L33.57 13.15L33.57 12.77Q33.57 12.39 33.32 12.39L33.32 12.39Q33.07 12.39 33.07 12.80L33.07 12.80L33.07 14.73Q33.07 15.06 33.32 15.06L33.32 15.06Q33.57 15.06 33.57 14.72L33.57 14.72L33.57 14.30L34.19 14.30L34.19 14.83Q34.19 15.19 33.91 15.38L33.91 15.38Q33.70 15.52 33.34 15.52L33.34 15.52Q32.41 15.52 32.41 14.65Z"/><path font-size="7" font-family="BookmanCartridgeTitle" fill="#ffffff" svgjs:data="{&quot;leading&quot;:&quot;1.3&quot;}" d="M35.25 15.48L34.59 15.48L34.59 11.97L35.25 11.97L35.25 15.48ZM35.25 11.13L34.59 11.13L34.59 10.43L35.25 10.43L35.25 11.13Z"/><path font-size="7" font-family="BookmanCartridgeTitle" fill="#ffffff" svgjs:data="{&quot;leading&quot;:&quot;1.3&quot;}" d="M36.40 16.76L35.74 16.76L35.74 11.97L36.36 11.97L36.36 12.36L36.37 12.36Q36.53 11.93 36.99 11.93L36.99 11.93Q37.61 11.93 37.61 12.74L37.61 12.74L37.61 14.71Q37.61 15.52 36.99 15.52L36.99 15.52Q36.61 15.52 36.40 15.29L36.40 15.29L36.40 16.76ZM36.40 13.00L36.40 13.00L36.40 14.69Q36.40 15.06 36.67 15.06L36.67 15.06Q36.95 15.06 36.95 14.56L36.95 14.56L36.95 12.91Q36.95 12.43 36.70 12.43L36.70 12.43Q36.40 12.43 36.40 13.00Z"/><path font-size="7" font-family="BookmanCartridgeTitle" fill="#ffffff" svgjs:data="{&quot;leading&quot;:&quot;1.3&quot;}" d="M38.76 15.48L38.10 15.48L38.10 10.43L38.76 10.43L38.76 15.48Z"/><path font-size="7" font-family="BookmanCartridgeTitle" fill="#ffffff" svgjs:data="{&quot;leading&quot;:&quot;1.3&quot;}" d="M39.23 14.65L39.23 14.65L39.23 12.87Q39.23 12.42 39.48 12.17Q39.72 11.93 40.18 11.93L40.18 11.93Q41.14 11.93 41.14 12.80L41.14 12.80L41.14 13.93L39.89 13.93L39.89 14.68Q39.89 15.10 40.21 15.10L40.21 15.10Q40.52 15.10 40.52 14.65L40.52 14.65L40.52 14.33L41.14 14.33L41.14 14.82Q41.14 15.12 40.92 15.31L40.92 15.31Q40.67 15.52 40.16 15.52L40.16 15.52Q39.23 15.52 39.23 14.65ZM39.89 12.73L39.89 12.73L39.89 13.47L40.52 13.47L40.52 12.79Q40.52 12.35 40.21 12.35L40.21 12.35Q39.89 12.35 39.89 12.73Z"/><path font-size="7" font-family="BookmanCartridgeTitle" fill="#ffffff" svgjs:data="{&quot;leading&quot;:&quot;1.3&quot;}" d="M43.21 12.56L43.21 13.10L42.62 13.10L42.62 12.77Q42.62 12.39 42.39 12.39L42.39 12.39Q42.25 12.39 42.20 12.48L42.20 12.48Q42.17 12.54 42.17 12.71L42.17 12.71Q42.17 12.97 42.23 13.07Q42.30 13.18 42.64 13.47L42.64 13.47Q43.03 13.82 43.14 14.01Q43.25 14.20 43.25 14.58L43.25 14.58Q43.25 15.10 43.04 15.31Q42.83 15.52 42.31 15.52L42.31 15.52Q41.52 15.52 41.52 14.80L41.52 14.80L41.52 14.31L42.14 14.31L42.14 14.79Q42.14 15.06 42.38 15.06L42.38 15.06Q42.54 15.06 42.58 14.98Q42.63 14.89 42.63 14.67L42.63 14.67Q42.63 14.38 42.57 14.27Q42.51 14.15 42.23 13.91L42.23 13.91L42.08 13.79Q41.70 13.46 41.62 13.30L41.62 13.30Q41.55 13.17 41.55 12.80L41.55 12.80Q41.55 12.32 41.79 12.11L41.79 12.11Q42.00 11.93 42.46 11.93L42.46 11.93Q43.21 11.93 43.21 12.56L43.21 12.56Z"/><path font-size="7" font-family="BookmanCartridgeTitle" fill="#ffffff" svgjs:data="{&quot;leading&quot;:&quot;1.3&quot;}" d="M4.73 21.15L4.73 21.15L4.73 19.37Q4.73 18.92 4.98 18.67Q5.22 18.43 5.66 18.43L5.66 18.43Q6.60 18.43 6.60 19.30L6.60 19.30L6.60 21.08Q6.60 21.53 6.36 21.78Q6.11 22.02 5.67 22.02L5.67 22.02Q4.73 22.02 4.73 21.15ZM5.39 19.33L5.39 19.33L5.39 21.12Q5.39 21.56 5.67 21.56L5.67 21.56Q5.94 21.56 5.94 21.12L5.94 21.12L5.94 19.33Q5.94 18.89 5.67 18.89L5.67 18.89Q5.39 18.89 5.39 19.33Z"/><path font-size="7" font-family="BookmanCartridgeTitle" fill="#ffffff" svgjs:data="{&quot;leading&quot;:&quot;1.3&quot;}" d="M7.85 21.98L7.19 21.98L7.19 18.93L6.87 18.93L6.87 18.47L7.19 18.47L7.19 17.64Q7.19 17.25 7.36 17.09Q7.53 16.93 8.04 16.93L8.04 16.93L8.26 16.93L8.26 17.43L8.14 17.43Q7.85 17.43 7.85 17.73L7.85 17.73L7.85 18.47L8.26 18.47L8.26 18.93L7.85 18.93L7.85 21.98Z"/><path font-size="7" font-family="BookmanCartridgeTitle" fill="#ffffff" svgjs:data="{&quot;leading&quot;:&quot;1.3&quot;}" d=""/><path font-size="7" font-family="BookmanCartridgeTitle" fill="#ffffff" svgjs:data="{&quot;leading&quot;:&quot;1.3&quot;}" d="M10.50 21.98L9.80 21.98L9.80 16.93L10.50 16.93L10.50 21.98Z"/><path font-size="7" font-family="BookmanCartridgeTitle" fill="#ffffff" svgjs:data="{&quot;leading&quot;:&quot;1.3&quot;}" d="M11.63 21.98L10.97 21.98L10.97 18.47L11.59 18.47L11.59 18.76L11.61 18.76Q11.81 18.43 12.21 18.43L12.21 18.43Q12.83 18.43 12.83 19.12L12.83 19.12L12.83 21.98L12.17 21.98L12.17 19.24Q12.17 18.93 11.92 18.93L11.92 18.93Q11.63 18.93 11.63 19.30L11.63 19.30L11.63 21.98Z"/><path font-size="7" font-family="BookmanCartridgeTitle" fill="#ffffff" svgjs:data="{&quot;leading&quot;:&quot;1.3&quot;}" d="M13.43 21.51L13.43 21.51L13.43 18.93L13.10 18.93L13.10 18.47L13.43 18.47L13.43 17.80L14.09 17.57L14.09 18.47L14.50 18.47L14.50 18.93L14.09 18.93L14.09 21.20Q14.09 21.52 14.40 21.52L14.40 21.52Q14.51 21.52 14.57 21.50L14.57 21.50L14.57 21.96Q14.34 21.98 14.15 21.98L14.15 21.98Q13.43 21.98 13.43 21.51Z"/><path font-size="7" font-family="BookmanCartridgeTitle" fill="#ffffff" svgjs:data="{&quot;leading&quot;:&quot;1.3&quot;}" d="M14.71 21.15L14.71 21.15L14.71 19.37Q14.71 18.92 14.95 18.67Q15.20 18.43 15.66 18.43L15.66 18.43Q16.62 18.43 16.62 19.30L16.62 19.30L16.62 20.43L15.36 20.43L15.36 21.18Q15.36 21.60 15.69 21.60L15.69 21.60Q16.00 21.60 16.00 21.15L16.00 21.15L16.00 20.83L16.62 20.83L16.62 21.32Q16.62 21.62 16.40 21.81L16.40 21.81Q16.15 22.02 15.64 22.02L15.64 22.02Q14.71 22.02 14.71 21.15ZM15.36 19.23L15.36 19.23L15.36 19.97L16.00 19.97L16.00 19.29Q16.00 18.85 15.69 18.85L15.69 18.85Q15.36 18.85 15.36 19.23Z"/><path font-size="7" font-family="BookmanCartridgeTitle" fill="#ffffff" svgjs:data="{&quot;leading&quot;:&quot;1.3&quot;}" d="M17.72 21.98L17.06 21.98L17.06 18.47L17.68 18.47L17.68 18.83L17.69 18.83Q17.81 18.59 17.92 18.51Q18.04 18.43 18.28 18.43L18.28 18.43L18.28 19.08Q17.72 19.08 17.72 19.54L17.72 19.54L17.72 21.98Z"/><path font-size="7" font-family="BookmanCartridgeTitle" fill="#ffffff" svgjs:data="{&quot;leading&quot;:&quot;1.3&quot;}" d="M19.15 21.98L18.49 21.98L18.49 18.47L19.11 18.47L19.11 18.76L19.12 18.76Q19.33 18.43 19.73 18.43L19.73 18.43Q20.35 18.43 20.35 19.12L20.35 19.12L20.35 21.98L19.69 21.98L19.69 19.24Q19.69 18.93 19.44 18.93L19.44 18.93Q19.15 18.93 19.15 19.30L19.15 19.30L19.15 21.98Z"/><path font-size="7" font-family="BookmanCartridgeTitle" fill="#ffffff" svgjs:data="{&quot;leading&quot;:&quot;1.3&quot;}" d="M21.47 19.50L20.81 19.50L20.81 19.19Q20.81 18.43 21.75 18.43L21.75 18.43Q22.68 18.43 22.68 19.28L22.68 19.28L22.68 21.98L22.06 21.98L22.06 21.62Q22.02 21.66 21.96 21.73Q21.91 21.80 21.87 21.83L21.87 21.83Q21.68 22.02 21.40 22.02L21.40 22.02Q21.08 22.02 20.94 21.86L20.94 21.86Q20.76 21.65 20.76 21.06L20.76 21.06Q20.76 20.64 20.78 20.50L20.78 20.50Q20.82 20.19 21.00 20.01L21.00 20.01Q21.13 19.87 21.29 19.84L21.29 19.84Q21.48 19.79 22.02 19.79L22.02 19.79L22.02 19.22Q22.02 18.89 21.75 18.89L21.75 18.89Q21.47 18.89 21.47 19.18L21.47 19.18L21.47 19.50ZM22.02 21.16L22.02 20.25L21.81 20.25Q21.58 20.25 21.50 20.40Q21.42 20.55 21.42 20.97L21.42 20.97Q21.42 21.51 21.57 21.55L21.57 21.55Q21.61 21.56 21.68 21.56L21.68 21.56Q22.02 21.56 22.02 21.16L22.02 21.16Z"/><path font-size="7" font-family="BookmanCartridgeTitle" fill="#ffffff" svgjs:data="{&quot;leading&quot;:&quot;1.3&quot;}" d="M23.83 21.98L23.18 21.98L23.18 16.93L23.83 16.93L23.83 21.98Z"/><path font-size="7" font-family="BookmanCartridgeTitle" fill="#ffffff" svgjs:data="{&quot;leading&quot;:&quot;1.3&quot;}" d=""/><path font-size="7" font-family="BookmanCartridgeTitle" fill="#ffffff" svgjs:data="{&quot;leading&quot;:&quot;1.3&quot;}" d="M26.27 21.98L25.65 21.98L25.65 16.93L26.77 16.93L27.41 20.78L27.42 20.78L28.07 16.93L29.15 16.93L29.15 21.98L28.50 21.98L28.50 17.43L28.48 17.43L27.77 21.98L27.07 21.98L26.28 17.43L26.27 17.43L26.27 21.98Z"/><path font-size="7" font-family="BookmanCartridgeTitle" fill="#ffffff" svgjs:data="{&quot;leading&quot;:&quot;1.3&quot;}" d="M29.62 21.15L29.62 21.15L29.62 19.37Q29.62 18.92 29.87 18.67Q30.12 18.43 30.57 18.43L30.57 18.43Q31.53 18.43 31.53 19.30L31.53 19.30L31.53 20.43L30.28 20.43L30.28 21.18Q30.28 21.60 30.60 21.60L30.60 21.60Q30.92 21.60 30.92 21.15L30.92 21.15L30.92 20.83L31.53 20.83L31.53 21.32Q31.53 21.62 31.32 21.81L31.32 21.81Q31.06 22.02 30.55 22.02L30.55 22.02Q29.62 22.02 29.62 21.15ZM30.28 19.23L30.28 19.23L30.28 19.97L30.92 19.97L30.92 19.29Q30.92 18.85 30.60 18.85L30.60 18.85Q30.28 18.85 30.28 19.23Z"/><path font-size="7" font-family="BookmanCartridgeTitle" fill="#ffffff" svgjs:data="{&quot;leading&quot;:&quot;1.3&quot;}" d="M32.63 19.36L32.63 19.36L32.63 21.10Q32.63 21.60 32.92 21.60L32.92 21.60Q33.19 21.60 33.19 21.23L33.19 21.23L33.19 19.46Q33.19 18.89 32.88 18.89L32.88 18.89Q32.63 18.89 32.63 19.36ZM31.97 21.21L31.97 21.21L31.97 19.24Q31.97 18.43 32.59 18.43L32.59 18.43Q33.00 18.43 33.17 18.72L33.17 18.72L33.19 18.72L33.19 16.93L33.84 16.93L33.84 21.98L33.23 21.98L33.23 21.73L33.21 21.73Q32.99 22.02 32.59 22.02L32.59 22.02Q31.97 22.02 31.97 21.21Z"/><path font-size="7" font-family="BookmanCartridgeTitle" fill="#ffffff" svgjs:data="{&quot;leading&quot;:&quot;1.3&quot;}" d="M34.99 21.98L34.33 21.98L34.33 18.47L34.99 18.47L34.99 21.98ZM34.99 17.63L34.33 17.63L34.33 16.93L34.99 16.93L34.99 17.63Z"/><path font-size="7" font-family="BookmanCartridgeTitle" fill="#ffffff" svgjs:data="{&quot;leading&quot;:&quot;1.3&quot;}" d="M35.40 21.15L35.40 21.15L35.40 19.37Q35.40 18.92 35.64 18.67Q35.89 18.43 36.32 18.43L36.32 18.43Q37.18 18.43 37.18 19.13L37.18 19.13L37.18 19.65L36.56 19.65L36.56 19.27Q36.56 18.89 36.31 18.89L36.31 18.89Q36.06 18.89 36.06 19.30L36.06 19.30L36.06 21.23Q36.06 21.56 36.31 21.56L36.31 21.56Q36.56 21.56 36.56 21.22L36.56 21.22L36.56 20.80L37.18 20.80L37.18 21.33Q37.18 21.69 36.90 21.88L36.90 21.88Q36.69 22.02 36.33 22.02L36.33 22.02Q35.40 22.02 35.40 21.15Z"/><path font-size="7" font-family="BookmanCartridgeTitle" fill="#ffffff" svgjs:data="{&quot;leading&quot;:&quot;1.3&quot;}" d="M38.24 21.98L37.58 21.98L37.58 18.47L38.24 18.47L38.24 21.98ZM38.24 17.63L37.58 17.63L37.58 16.93L38.24 16.93L38.24 17.63Z"/><path font-size="7" font-family="BookmanCartridgeTitle" fill="#ffffff" svgjs:data="{&quot;leading&quot;:&quot;1.3&quot;}" d="M39.40 21.98L38.74 21.98L38.74 18.47L39.35 18.47L39.35 18.76L39.37 18.76Q39.57 18.43 39.98 18.43L39.98 18.43Q40.59 18.43 40.59 19.12L40.59 19.12L40.59 21.98L39.93 21.98L39.93 19.24Q39.93 18.93 39.68 18.93L39.68 18.93Q39.40 18.93 39.40 19.30L39.40 19.30L39.40 21.98Z"/><path font-size="7" font-family="BookmanCartridgeTitle" fill="#ffffff" svgjs:data="{&quot;leading&quot;:&quot;1.3&quot;}" d="M41.04 21.15L41.04 21.15L41.04 19.37Q41.04 18.92 41.29 18.67Q41.54 18.43 41.99 18.43L41.99 18.43Q42.95 18.43 42.95 19.30L42.95 19.30L42.95 20.43L41.70 20.43L41.70 21.18Q41.70 21.60 42.02 21.60L42.02 21.60Q42.34 21.60 42.34 21.15L42.34 21.15L42.34 20.83L42.95 20.83L42.95 21.32Q42.95 21.62 42.73 21.81L42.73 21.81Q42.48 22.02 41.97 22.02L41.97 22.02Q41.04 22.02 41.04 21.15ZM41.70 19.23L41.70 19.23L41.70 19.97L42.34 19.97L42.34 19.29Q42.34 18.85 42.02 18.85L42.02 18.85Q41.70 18.85 41.70 19.23Z"/><path font-size="1.8" font-family="BookmanCartridgeCode" fill="#ffffff" svgjs:data="{&quot;leading&quot;:&quot;1.3&quot;}" d="M37.96 4.17L38.14 4.17L38.14 5.42L37.96 5.42L37.96 4.85L37.36 4.85L37.36 5.42L37.17 5.42L37.17 4.17L37.36 4.17L37.36 4.69L37.96 4.69L37.96 4.17Z"/><path font-size="1.8" font-family="BookmanCartridgeCode" fill="#ffffff" svgjs:data="{&quot;leading&quot;:&quot;1.3&quot;}" d="M39.07 4.17L39.25 4.17L39.80 5.42L39.60 5.42L39.46 5.11L38.86 5.11L38.73 5.42L38.53 5.42L39.07 4.17ZM38.91 4.96L39.40 4.96L39.24 4.55Q39.19 4.44 39.16 4.32L39.16 4.32L39.15 4.32Q39.13 4.40 39.07 4.55L39.07 4.55L38.91 4.96Z"/><path font-size="1.8" font-family="BookmanCartridgeCode" fill="#ffffff" svgjs:data="{&quot;leading&quot;:&quot;1.3&quot;}" d="M40.37 5.42L40.19 5.42L40.19 4.17L40.50 4.17Q40.74 4.17 40.87 4.24Q40.99 4.32 40.99 4.50L40.99 4.50Q40.99 4.73 40.71 4.79L40.71 4.79L40.71 4.79Q40.77 4.82 40.81 4.86Q40.85 4.90 40.88 4.97L40.88 4.97L41.09 5.42L40.89 5.42L40.71 5.02Q40.67 4.93 40.61 4.89Q40.56 4.86 40.43 4.86L40.43 4.86L40.37 4.86L40.37 5.42ZM40.46 4.32L40.37 4.32L40.37 4.71L40.46 4.71Q40.81 4.71 40.81 4.51L40.81 4.51Q40.81 4.40 40.72 4.36Q40.64 4.32 40.46 4.32L40.46 4.32Z"/><path font-size="1.8" font-family="BookmanCartridgeCode" fill="#ffffff" svgjs:data="{&quot;leading&quot;:&quot;1.3&quot;}" d="M41.37 4.88L41.85 4.88L41.85 5.02L41.37 5.02L41.37 4.88Z"/><path font-size="1.8" font-family="BookmanCartridgeCode" fill="#ffffff" svgjs:data="{&quot;leading&quot;:&quot;1.3&quot;}" d="M42.44 4.84L42.44 4.84Q42.41 4.84 42.39 4.84L42.39 4.84L42.39 4.70Q42.40 4.70 42.43 4.70L42.43 4.70Q42.61 4.70 42.71 4.65Q42.81 4.59 42.81 4.49L42.81 4.49Q42.81 4.39 42.74 4.34Q42.67 4.29 42.55 4.29L42.55 4.29Q42.42 4.29 42.27 4.35L42.27 4.35L42.26 4.20Q42.40 4.15 42.56 4.15L42.56 4.15Q42.76 4.15 42.88 4.23Q42.99 4.32 42.99 4.48L42.99 4.48Q42.99 4.60 42.90 4.68Q42.81 4.75 42.67 4.77L42.67 4.77L42.67 4.77Q42.81 4.78 42.91 4.87Q43.00 4.95 43.00 5.09L43.00 5.09Q43.00 5.25 42.88 5.35Q42.75 5.45 42.54 5.45L42.54 5.45Q42.37 5.45 42.22 5.39L42.22 5.39L42.23 5.23Q42.39 5.31 42.53 5.31L42.53 5.31Q42.66 5.31 42.74 5.25Q42.82 5.19 42.82 5.07L42.82 5.07Q42.82 4.84 42.44 4.84Z"/><path font-size="1.8" font-family="BookmanCartridgeCode" fill="#ffffff" svgjs:data="{&quot;leading&quot;:&quot;1.3&quot;}" d="M43.83 4.15L43.83 4.15Q44.04 4.15 44.14 4.32Q44.25 4.49 44.25 4.81L44.25 4.81Q44.25 4.99 44.21 5.13Q44.17 5.27 44.07 5.36Q43.97 5.45 43.82 5.45L43.82 5.45Q43.67 5.45 43.57 5.36Q43.48 5.27 43.44 5.12Q43.40 4.98 43.40 4.79L43.40 4.79Q43.40 4.48 43.51 4.31Q43.62 4.15 43.83 4.15ZM43.83 4.29L43.83 4.29Q43.71 4.29 43.65 4.42Q43.58 4.55 43.58 4.79L43.58 4.79Q43.58 5.04 43.65 5.17Q43.71 5.30 43.83 5.30L43.83 5.30Q43.95 5.30 44.01 5.17Q44.07 5.04 44.07 4.79L44.07 4.79Q44.07 4.55 44.00 4.42Q43.94 4.29 43.83 4.29Z"/><path font-size="1.8" font-family="BookmanCartridgeCode" fill="#ffffff" svgjs:data="{&quot;leading&quot;:&quot;1.3&quot;}" d="M45.03 4.15L45.03 4.15Q45.24 4.15 45.34 4.32Q45.45 4.49 45.45 4.81L45.45 4.81Q45.45 4.99 45.41 5.13Q45.37 5.27 45.27 5.36Q45.17 5.45 45.02 5.45L45.02 5.45Q44.87 5.45 44.78 5.36Q44.68 5.27 44.64 5.12Q44.60 4.98 44.60 4.79L44.60 4.79Q44.60 4.48 44.71 4.31Q44.82 4.15 45.03 4.15ZM45.03 4.29L45.03 4.29Q44.91 4.29 44.85 4.42Q44.78 4.55 44.78 4.79L44.78 4.79Q44.78 5.04 44.85 5.17Q44.91 5.30 45.03 5.30L45.03 5.30Q45.15 5.30 45.21 5.17Q45.27 5.04 45.27 4.79L45.27 4.79Q45.27 4.55 45.20 4.42Q45.14 4.29 45.03 4.29Z"/><path font-size="1.8" font-family="BookmanCartridgeCode" fill="#ffffff" svgjs:data="{&quot;leading&quot;:&quot;1.3&quot;}" d="M46.38 4.75L46.38 4.75Q46.53 4.81 46.60 4.89Q46.67 4.97 46.67 5.09L46.67 5.09Q46.67 5.25 46.54 5.35Q46.41 5.45 46.22 5.45L46.22 5.45Q46.02 5.45 45.90 5.35Q45.78 5.26 45.78 5.10L45.78 5.10Q45.78 4.98 45.85 4.90Q45.92 4.82 46.07 4.76L46.07 4.76Q45.93 4.70 45.87 4.63Q45.81 4.57 45.81 4.46L45.81 4.46Q45.81 4.32 45.92 4.23Q46.04 4.15 46.23 4.15L46.23 4.15Q46.41 4.15 46.52 4.23Q46.63 4.31 46.63 4.46L46.63 4.46Q46.63 4.64 46.38 4.75ZM46.25 4.70L46.25 4.70Q46.44 4.62 46.44 4.47L46.44 4.47Q46.44 4.38 46.38 4.33Q46.32 4.28 46.22 4.28Q46.13 4.28 46.06 4.33Q45.99 4.38 45.99 4.46L45.99 4.46Q45.99 4.55 46.06 4.60Q46.12 4.66 46.25 4.70ZM46.20 4.83L46.20 4.83Q45.97 4.91 45.97 5.09L45.97 5.09Q45.97 5.19 46.04 5.25Q46.11 5.31 46.22 5.31Q46.33 5.31 46.41 5.25Q46.48 5.19 46.48 5.09L46.48 5.09Q46.48 5.00 46.41 4.94Q46.34 4.88 46.20 4.83Z"/><path d="M1 2.5C1 1.5 1.5 1 2.5 1L49.5 1C50.5 1 51 1.5 51 2.5L51 29.5C51 30.5 50.5 31 49.5 31L2.5 31C1.5 31 1 30.5 1 29.5Z " fill="#000000" stroke-width="0.25" stroke="#222222"/><svg viewBox="1 1 48 28" width="50" height="28.26086956521739" x="1" y="1.5"><path d="M 2 3 A 1 1 0 0 1 3 2 L 47 2 A 1 1 0 0 1 48 3 L 48 27 A 1 1 0 0 1 47 28 L 3 28 A 1 1 0 0 1 2 27 L 2 3 Z" stroke="#00b3ac" stroke-width="0.15" fill="none"/></svg><svg viewBox="42 18 170 40" width="20" height="3.4399999999999995" x="2" y="4"><path d="m44.851562 19.238281h19.296876v6.632813h-8.5v5.609375h7.480468v6.121093h-7.480468v9.773438h-10.796876z" fill="#fff"/><path d="m64.488281 26.039062v21.335938h10.453125v-14.363281h3.742188v-7.480469c-2.125 0-3.0625.339844-4.421875 1.785156v-1.277344z" fill="#fff"/><path d="m91.347656 47.375h9.605469v-16.914062c0-2.722657-1.273437-4.929688-5.441406-4.929688h-10.113281c-3.402344 0-5.867188 1.699219-5.867188 4.757812v2.804688h9.777344v-3.3125h2.039062v5.097656h-7.988281c-2.890625 0-4.589844 2.636719-4.589844 5.015625v2.71875c0 1.871094 1.527344 4.761719 4.078125 4.761719h6.289063v-9.519531h2.210937z" fill="#fff"/><path d="m115.574219 29.269531v18.105469h10.113281v-9.859375h-6.457031v-2.039063h6.457031v-5.695312c0-2.042969-.847656-4.167969-4.332031-4.167969h-3.65625c-2.296875 0-3.996094 1.023438-4.421875 2.125v-1.785156h-10.027344v21.421875h10.199219v-18.105469z" fill="#fff"/><path d="m128.070312 19.15625h9.605469v13.003906l3.90625-6.207031h9.777344l-5.953125 9.523437h-17.335938z" fill="#fff"/><path d="m128.070312 47.375h9.519532v-9.859375h-9.519532zm0 0" fill="#fff"/><path d="m139.96875 47.375h9.859375v-9.859375h-9.859375zm0 0" fill="#fff"/><path d="m152.207031 37.515625h9.859375v9.859375h-9.859375zm0 0" fill="#fff"/><path d="m152.207031 19.15625h9.859375v16.320312h-9.859375zm0 0" fill="#fff"/><path d="m164.449219 37.515625h9.773437v9.859375h-9.773437zm0 0" fill="#fff"/><path d="m164.449219 25.953125h9.773437v9.523437h-9.773437zm0 0" fill="#fff"/><path d="m204.332031 27.625v-1.441406h.675781c.398438 0 .6875.058594.871094.179687.179688.117188.269532.308594.269532.570313 0 .242187-.085938.417968-.257813.527344-.171875.109374-.457031.164062-.859375.164062zm2.394531-.007812c.179688-.207032.269532-.464844.269532-.773438 0-.398438-.15625-.695312-.460938-.898438-.308594-.199218-.769531-.296874-1.378906-.296874h-1.65625v4.371093h.832031v-1.875h.8125l.890625 1.875h.9375l-.988281-2.003906c.316406-.054687.566406-.1875.742187-.398437zm1.457032 1.59375c-.167969.398437-.40625.753906-.71875 1.0625-.328125.316406-.699219.558593-1.121094.726562-.417969.171875-.855469.253906-1.3125.253906-.429688 0-.851562-.085937-1.265625-.261718-.410156-.171876-.777344-.417969-1.097656-.734376-.3125-.3125-.554688-.667968-.726563-1.078124-.171875-.40625-.257812-.828126-.257812-1.265626 0-.445312.089844-.878906.265625-1.292968.175781-.414063.425781-.785156.75-1.109375.304687-.304688.664062-.539063 1.066406-.703125.40625-.164063.835937-.246094 1.296875-.246094.453125 0 .886719.082031 1.304688.253906.414062.167969.78125.40625 1.097656.71875.316406.320313.558594.683594.726562 1.09375.164063.410156.246094.847656.246094 1.316406 0 .441407-.085938.863282-.253906 1.265626zm-4.8125-4.777344c-.515625.25-.960938.613281-1.332032 1.085937-.269531.351563-.476562.730469-.617187 1.140625-.144531.40625-.210937.824219-.210937 1.246094 0 .507812.09375.992188.289062 1.457031.191406.464844.46875.878907.832031 1.242188.371094.375.789063.660156 1.261719.859375.472656.195312.960938.296875 1.46875.296875.496094 0 .980469-.101563 1.453125-.296875.46875-.195313.894531-.480469 1.273437-.847656.367188-.351563.644532-.761719.835938-1.226563s.289062-.960937.289062-1.484375c0-.601562-.128906-1.167969-.390624-1.703125-.257813-.53125-.625-.980469-1.09375-1.347656-.339844-.261719-.707032-.460938-1.113282-.597657-.402344-.136718-.820312-.203124-1.253906-.203124-.609375 0-1.171875.125-1.691406.378906" fill="#fff"/><path d="m188.929688 37.515625h10.113281v9.859375h-10.113281zm0 0" fill="#fff"/><path d="m176.605469 35.476562v-9.523437h10.027343v1.785156c.425782-1.101562 2.125-2.125 4.421876-2.125h3.652343c3.488281 0 4.335938 2.125 4.335938 4.167969v5.695312h-10.113281v-6.207031h-2.125v6.207031z" fill="#fff"/><path d="m176.605469 37.515625h10.199219v9.859375h-10.199219zm0 0" fill="#fff"/></svg><svg width="18" height="4.599321702264003" viewBox="0 0 180 50" version="1.2" x="30.5" y="25.25">
<g transform="translate(-220,-615)">
<path style="fill-rule:nonzero;fill: #fff;fill-opacity:1;stroke-width:0.993;stroke-linecap:butt;stroke-linejoin:miter;stroke: #00b3ac;stroke-opacity:1;stroke-miterlimit:4;" d="M 166.400594 24.727593 L 211.602325 24.727593 L 211.602325 48.073455 L 166.400594 48.073455 Z M 166.400594 24.727593 " transform="matrix(1.859805,0,0,-1.840195,0,706.57)"/>
<path style="fill:none;stroke-width:1.609;stroke-linecap:round;stroke-linejoin:round;stroke: #00b3ac;stroke-opacity:1;stroke-miterlimit:4;" d="M 165.215994 36.152164 L 174.01858 36.152164 L 175.829086 42.127669 L 177.639591 29.272373 L 179.811358 36.152164 L 186.511489 36.152164 L 188.321995 42.308101 L 190.1325 29.454929 L 192.123637 36.152164 L 198.279776 36.152164 L 200.090282 42.308101 L 202.62541 29.454929 L 204.435915 36.515152 L 211.486806 36.515152 " transform="matrix(1.859805,0,0,-1.840195,0,706.57)"/>
<path style="fill-rule:nonzero;fill: #00b3ac;stroke-width:0.993;stroke-linecap:butt;stroke-linejoin:miter;stroke: #00b3ac;stroke-opacity:1;stroke-miterlimit:4;" d="M 121.198862 24.727593 L 166.896277 24.727593 L 166.896277 48.073455 L 121.198862 48.073455 Z M 121.198862 24.727593 " transform="matrix(1.859805,0,0,-1.840195,0,706.57)"/>
<g>
  <path fill="#fff" transform="translate(229.097155,652.836195)" d="M 3.203125 -23.4375 C 3.5 -23.328125 3.71875 -23.1875 3.859375 -22.984375 C 4 -22.765625 4.078125 -22.125 4.109375 -21.03125 C 4.15625 -19.515625 4.171875 -17.96875 4.171875 -16.40625 L 4.171875 -8.34375 C 4.140625 -5.28125 4.09375 -3.640625 4.09375 -3.390625 C 4.0625 -2.484375 3.96875 -1.9375 3.828125 -1.703125 C 3.71875 -1.53125 3.5 -1.390625 3.203125 -1.28125 C 2.890625 -1.1875 2.046875 -1.125 0.671875 -1.109375 L 0.671875 0 L 5.046875 -0.140625 L 9.296875 0 L 9.296875 -1.109375 C 7.875 -1.125 7.03125 -1.1875 6.734375 -1.28125 C 6.4375 -1.390625 6.234375 -1.546875 6.09375 -1.765625 C 5.953125 -1.96875 5.875 -2.609375 5.84375 -3.71875 C 5.78125 -5.21875 5.765625 -6.75 5.765625 -8.34375 L 5.765625 -20.546875 L 14.1875 -3.25 L 15.375 -0.734375 C 15.5 -0.453125 15.640625 -0.109375 15.796875 0.328125 L 16.484375 0.328125 C 17.265625 -1.546875 17.859375 -2.9375 18.25 -3.8125 C 18.765625 -5 19.53125 -6.578125 20.484375 -8.546875 L 26.546875 -21.125 L 26.546875 -8.34375 C 26.5 -5.28125 26.453125 -3.640625 26.453125 -3.390625 C 26.421875 -2.484375 26.34375 -1.9375 26.203125 -1.703125 C 26.09375 -1.53125 25.875 -1.390625 25.578125 -1.28125 C 25.265625 -1.1875 24.421875 -1.125 23.03125 -1.109375 L 23.03125 0 C 25.703125 -0.109375 27.453125 -0.15625 28.234375 -0.15625 C 29.203125 -0.15625 30.875 -0.109375 33.25 0 L 33.25 -1.109375 C 31.84375 -1.125 31 -1.1875 30.703125 -1.28125 C 30.40625 -1.390625 30.1875 -1.546875 30.046875 -1.765625 C 29.90625 -1.96875 29.84375 -2.609375 29.796875 -3.71875 C 29.75 -5.21875 29.734375 -6.75 29.734375 -8.34375 L 29.734375 -16.40625 C 29.765625 -19.46875 29.796875 -21.09375 29.828125 -21.34375 C 29.84375 -22.234375 29.921875 -22.796875 30.078125 -23.03125 C 30.1875 -23.203125 30.40625 -23.328125 30.703125 -23.4375 C 31 -23.53125 31.84375 -23.59375 33.25 -23.625 L 33.25 -24.734375 C 31.484375 -24.6875 30.203125 -24.671875 29.4375 -24.671875 C 28.578125 -24.671875 27.515625 -24.6875 26.28125 -24.734375 C 25.71875 -23.296875 24.625 -20.875 23 -17.5 L 16.984375 -5.046875 L 10.3125 -18.625 C 9.453125 -20.375 8.5 -22.40625 7.484375 -24.734375 C 6.421875 -24.6875 5.328125 -24.671875 4.203125 -24.671875 C 3.078125 -24.671875 1.90625 -24.6875 0.671875 -24.734375 L 0.671875 -23.625 C 2.0625 -23.59375 2.90625 -23.53125 3.203125 -23.4375 Z M 3.203125 -23.4375 "/>
  <path fill="#fff" transform="translate(263.1764,652.836195)" d="M 5.078125 -0.140625 L 10.1875 0 C 11.875 0 13.328125 -0.21875 14.5625 -0.703125 C 16.21875 -1.328125 17.5625 -2.28125 18.609375 -3.59375 C 19.671875 -4.890625 20.203125 -6.40625 20.203125 -8.125 C 20.203125 -9 20.03125 -9.78125 19.75 -10.5 C 19.453125 -11.1875 19.015625 -11.796875 18.453125 -12.296875 C 17.890625 -12.78125 17.1875 -13.15625 16.34375 -13.40625 C 15.5 -13.65625 14.390625 -13.84375 13.015625 -13.984375 C 14.046875 -14.21875 14.890625 -14.5 15.515625 -14.8125 C 16.15625 -15.125 16.734375 -15.53125 17.265625 -16.015625 C 17.78125 -16.5 18.1875 -17.09375 18.515625 -17.78125 C 18.828125 -18.4375 18.984375 -19.171875 18.984375 -19.9375 C 18.984375 -20.890625 18.71875 -21.765625 18.1875 -22.546875 C 17.65625 -23.328125 16.9375 -23.90625 16.03125 -24.25 C 15.09375 -24.59375 13.78125 -24.78125 12.0625 -24.78125 L 5.59375 -24.625 L 1.9375 -24.703125 C 1.34375 -24.703125 0.859375 -24.703125 0.46875 -24.734375 L 0.46875 -23.640625 C 1.6875 -23.625 2.5 -23.53125 2.890625 -23.375 C 3.046875 -23.3125 3.171875 -23.1875 3.25 -23.046875 C 3.359375 -22.8125 3.453125 -22.21875 3.5 -21.265625 C 3.578125 -19.71875 3.609375 -18.390625 3.609375 -17.25 L 3.609375 -6.75 C 3.609375 -6.15625 3.578125 -5.296875 3.515625 -4.15625 C 3.46875 -3.03125 3.40625 -2.296875 3.34375 -1.953125 C 3.296875 -1.71875 3.21875 -1.5625 3.15625 -1.484375 C 3.0625 -1.390625 2.65625 -1.171875 1.9375 -0.8125 L 1.9375 0 C 3.484375 -0.09375 4.515625 -0.140625 5.078125 -0.140625 Z M 6.953125 -18.609375 C 6.953125 -20.625 7 -22.109375 7.109375 -23.09375 C 7.984375 -23.265625 8.9375 -23.34375 9.9375 -23.34375 C 11.734375 -23.34375 13.09375 -23.015625 14.015625 -22.375 C 14.953125 -21.734375 15.421875 -20.6875 15.421875 -19.234375 C 15.421875 -18.40625 15.265625 -17.6875 14.984375 -17.078125 C 14.703125 -16.453125 14.34375 -15.96875 13.921875 -15.609375 C 13.46875 -15.25 12.859375 -14.953125 12.0625 -14.75 C 11.28125 -14.515625 10.15625 -14.421875 8.703125 -14.421875 C 8.203125 -14.421875 7.625 -14.4375 6.953125 -14.46875 Z M 6.953125 -6.4375 L 6.953125 -13.046875 C 7.71875 -13.078125 8.375 -13.109375 8.890625 -13.109375 C 11.0625 -13.109375 12.65625 -12.90625 13.59375 -12.5 C 14.546875 -12.09375 15.265625 -11.484375 15.765625 -10.65625 C 16.234375 -9.8125 16.484375 -8.8125 16.484375 -7.59375 C 16.484375 -6.359375 16.21875 -5.265625 15.703125 -4.3125 C 15.203125 -3.359375 14.484375 -2.640625 13.53125 -2.171875 C 12.578125 -1.703125 11.328125 -1.484375 9.78125 -1.484375 C 8.796875 -1.484375 7.875 -1.578125 7 -1.796875 C 6.96875 -4.25 6.953125 -5.796875 6.953125 -6.4375 Z M 6.953125 -6.4375 "/>
  <path fill="#fff" transform="translate(285.186137,652.836195)" d="M 7.453125 0.5 C 10.515625 0.5 13.03125 -0.34375 14.96875 -2.078125 C 16.90625 -3.78125 17.875 -5.796875 17.875 -8.109375 C 17.875 -9.09375 17.703125 -9.921875 17.359375 -10.65625 C 17.015625 -11.390625 16.59375 -11.953125 16.0625 -12.40625 C 15.53125 -12.859375 14.703125 -13.25 13.625 -13.578125 C 12.4375 -13.78125 11.125 -14 9.65625 -14.1875 C 8.1875 -14.375 7.125 -14.59375 6.484375 -14.8125 C 5.546875 -15.125 4.890625 -15.5625 4.546875 -16.109375 C 4.171875 -16.640625 4 -17.40625 4 -18.40625 C 4 -20.046875 4.484375 -21.359375 5.5 -22.390625 C 6.53125 -23.421875 7.875 -23.9375 9.59375 -23.9375 C 10.890625 -23.9375 12.15625 -23.59375 13.375 -22.921875 C 13.859375 -22.578125 14.265625 -22.21875 14.5625 -21.796875 C 14.640625 -21.625 14.6875 -20.65625 14.71875 -18.875 L 15.921875 -18.875 C 15.953125 -20.09375 16.015625 -21.03125 16.078125 -21.65625 C 16.15625 -22.28125 16.25 -22.984375 16.4375 -23.71875 C 15.40625 -24.203125 14.296875 -24.578125 13.125 -24.84375 C 11.953125 -25.109375 10.859375 -25.25 9.875 -25.25 C 8.21875 -25.25 6.671875 -24.890625 5.265625 -24.234375 C 3.859375 -23.5625 2.78125 -22.609375 2.0625 -21.390625 C 1.34375 -20.171875 0.984375 -18.890625 0.984375 -17.53125 C 0.984375 -16.59375 1.15625 -15.703125 1.515625 -14.90625 C 1.859375 -14.078125 2.34375 -13.421875 2.921875 -12.9375 C 3.484375 -12.4375 4.375 -12 5.609375 -11.625 C 6.53125 -11.421875 7.640625 -11.25 8.9375 -11.09375 C 10.234375 -10.921875 11.09375 -10.8125 11.546875 -10.734375 C 12.234375 -10.609375 12.8125 -10.359375 13.28125 -10.015625 C 13.734375 -9.65625 14.09375 -9.234375 14.328125 -8.671875 C 14.546875 -8.109375 14.671875 -7.453125 14.671875 -6.6875 C 14.671875 -5.671875 14.4375 -4.734375 13.984375 -3.859375 C 13.53125 -3 12.796875 -2.28125 11.8125 -1.734375 C 10.796875 -1.203125 9.71875 -0.9375 8.53125 -0.9375 C 7.71875 -0.9375 6.875 -1.0625 6.015625 -1.34375 C 5.140625 -1.625 4.453125 -1.9375 3.9375 -2.28125 C 3.40625 -2.625 3.09375 -2.9375 2.953125 -3.25 C 2.8125 -3.5625 2.734375 -4.5625 2.671875 -6.265625 L 1.484375 -6.265625 C 1.4375 -3.765625 1.3125 -1.96875 1.140625 -0.859375 C 3.03125 0.046875 5.140625 0.5 7.453125 0.5 Z M 7.453125 0.5 "/>
</g>
</g>
</svg><path font-size="7" font-family="BookmanCartridgeTitle" fill="#ffffff" svgjs:data="{&quot;leading&quot;:&quot;1.3&quot;}" d="M5.46 15.48L4.76 15.48L4.76 10.43L5.46 10.43L5.46 12.60L6.39 12.60L6.39 10.43L7.09 10.43L7.09 15.48L6.39 15.48L6.39 13.19L5.46 13.19L5.46 15.48Z"/><path font-size="7" font-family="BookmanCartridgeTitle" fill="#ffffff" svgjs:data="{&quot;leading&quot;:&quot;1.3&quot;}" d="M8.23 13.00L7.57 13.00L7.57 12.69Q7.57 11.93 8.51 11.93L8.51 11.93Q9.44 11.93 9.44 12.78L9.44 12.78L9.44 15.48L8.83 15.48L8.83 15.12Q8.78 15.16 8.73 15.23Q8.67 15.30 8.64 15.33L8.64 15.33Q8.45 15.52 8.17 15.52L8.17 15.52Q7.84 15.52 7.70 15.36L7.70 15.36Q7.52 15.15 7.52 14.56L7.52 14.56Q7.52 14.14 7.54 14.00L7.54 14.00Q7.59 13.69 7.76 13.51L7.76 13.51Q7.89 13.37 8.05 13.34L8.05 13.34Q8.25 13.29 8.78 13.29L8.78 13.29L8.78 12.72Q8.78 12.39 8.51 12.39L8.51 12.39Q8.23 12.39 8.23 12.68L8.23 12.68L8.23 13.00ZM8.78 14.66L8.78 13.75L8.57 13.75Q8.34 13.75 8.26 13.90Q8.18 14.05 8.18 14.47L8.18 14.47Q8.18 15.01 8.33 15.05L8.33 15.05Q8.37 15.06 8.44 15.06L8.44 15.06Q8.78 15.06 8.78 14.66L8.78 14.66Z"/><path font-size="7" font-family="BookmanCartridgeTitle" fill="#ffffff" svgjs:data="{&quot;leading&quot;:&quot;1.3&quot;}" d="M10.58 15.48L9.92 15.48L9.92 11.97L10.53 11.97L10.53 12.33L10.55 12.33Q10.66 12.09 10.78 12.01Q10.89 11.93 11.14 11.93L11.14 11.93L11.14 12.58Q10.58 12.58 10.58 13.04L10.58 13.04L10.58 15.48Z"/><path font-size="7" font-family="BookmanCartridgeTitle" fill="#ffffff" svgjs:data="{&quot;leading&quot;:&quot;1.3&quot;}" d="M12.00 15.48L11.35 15.48L11.35 11.97L11.96 11.97L11.96 12.33L11.98 12.33Q12.09 12.09 12.20 12.01Q12.32 11.93 12.56 11.93L12.56 11.93L12.56 12.58Q12.00 12.58 12.00 13.04L12.00 13.04L12.00 15.48Z"/><path font-size="7" font-family="BookmanCartridgeTitle" fill="#ffffff" svgjs:data="{&quot;leading&quot;:&quot;1.3&quot;}" d="M13.45 15.48L12.80 15.48L12.80 11.97L13.45 11.97L13.45 15.48ZM13.45 11.13L12.80 11.13L12.80 10.43L13.45 10.43L13.45 11.13Z"/><path font-size="7" font-family="BookmanCartridgeTitle" fill="#ffffff" svgjs:data="{&quot;leading&quot;:&quot;1.3&quot;}" d="M15.57 12.56L15.57 13.10L14.99 13.10L14.99 12.77Q14.99 12.39 14.76 12.39L14.76 12.39Q14.62 12.39 14.57 12.48L14.57 12.48Q14.53 12.54 14.53 12.71L14.53 12.71Q14.53 12.97 14.60 13.07Q14.66 13.18 15.00 13.47L15.00 13.47Q15.39 13.82 15.50 14.01Q15.61 14.20 15.61 14.58L15.61 14.58Q15.61 15.10 15.40 15.31Q15.19 15.52 14.67 15.52L14.67 15.52Q13.89 15.52 13.89 14.80L13.89 14.80L13.89 14.31L14.50 14.31L14.50 14.79Q14.50 15.06 14.75 15.06L14.75 15.06Q14.90 15.06 14.95 14.98Q14.99 14.89 14.99 14.67L14.99 14.67Q14.99 14.38 14.93 14.27Q14.87 14.15 14.59 13.91L14.59 13.91L14.45 13.79Q14.06 13.46 13.99 13.30L13.99 13.30Q13.92 13.17 13.92 12.80L13.92 12.80Q13.92 12.32 14.15 12.11L14.15 12.11Q14.36 11.93 14.83 11.93L14.83 11.93Q15.57 11.93 15.57 12.56L15.57 12.56Z"/><path font-size="7" font-family="BookmanCartridgeTitle" fill="#ffffff" svgjs:data="{&quot;leading&quot;:&quot;1.3&quot;}" d="M16.02 14.65L16.02 14.65L16.02 12.87Q16.02 12.42 16.26 12.17Q16.51 11.93 16.95 11.93L16.95 11.93Q17.88 11.93 17.88 12.80L17.88 12.80L17.88 14.58Q17.88 15.03 17.64 15.28Q17.39 15.52 16.95 15.52L16.95 15.52Q16.02 15.52 16.02 14.65ZM16.67 12.83L16.67 12.83L16.67 14.62Q16.67 15.06 16.95 15.06L16.95 15.06Q17.23 15.06 17.23 14.62L17.23 14.62L17.23 12.83Q17.23 12.39 16.95 12.39L16.95 12.39Q16.67 12.39 16.67 12.83Z"/><path font-size="7" font-family="BookmanCartridgeTitle" fill="#ffffff" svgjs:data="{&quot;leading&quot;:&quot;1.3&quot;}" d="M19.01 15.48L18.35 15.48L18.35 11.97L18.97 11.97L18.97 12.26L18.98 12.26Q19.19 11.93 19.59 11.93L19.59 11.93Q20.21 11.93 20.21 12.62L20.21 12.62L20.21 15.48L19.55 15.48L19.55 12.74Q19.55 12.43 19.30 12.43L19.30 12.43Q19.01 12.43 19.01 12.80L19.01 12.80L19.01 15.48Z"/><path font-size="7" font-family="BookmanCartridgeTitle" fill="#ffffff" svgjs:data="{&quot;leading&quot;:&quot;1.3&quot;}" d="M21.15 11.67L20.65 11.67L20.80 10.43L21.55 10.43L21.15 11.67Z"/><path font-size="7" font-family="BookmanCartridgeTitle" fill="#ffffff" svgjs:data="{&quot;leading&quot;:&quot;1.3&quot;}" d="M23.09 12.56L23.09 13.10L22.50 13.10L22.50 12.77Q22.50 12.39 22.27 12.39L22.27 12.39Q22.13 12.39 22.08 12.48L22.08 12.48Q22.05 12.54 22.05 12.71L22.05 12.71Q22.05 12.97 22.12 13.07Q22.18 13.18 22.52 13.47L22.52 13.47Q22.91 13.82 23.02 14.01Q23.13 14.20 23.13 14.58L23.13 14.58Q23.13 15.10 22.92 15.31Q22.71 15.52 22.19 15.52L22.19 15.52Q21.41 15.52 21.41 14.80L21.41 14.80L21.41 14.31L22.02 14.31L22.02 14.79Q22.02 15.06 22.27 15.06L22.27 15.06Q22.42 15.06 22.47 14.98Q22.51 14.89 22.51 14.67L22.51 14.67Q22.51 14.38 22.45 14.27Q22.39 14.15 22.11 13.91L22.11 13.91L21.96 13.79Q21.58 13.46 21.50 13.30L21.50 13.30Q21.43 13.17 21.43 12.80L21.43 12.80Q21.43 12.32 21.67 12.11L21.67 12.11Q21.88 11.93 22.34 11.93L22.34 11.93Q23.09 11.93 23.09 12.56L23.09 12.56Z"/><path font-size="7" font-family="BookmanCartridgeTitle" fill="#ffffff" svgjs:data="{&quot;leading&quot;:&quot;1.3&quot;}" d=""/><path font-size="7" font-family="BookmanCartridgeTitle" fill="#ffffff" svgjs:data="{&quot;leading&quot;:&quot;1.3&quot;}" d="M25.93 11.02L25.56 11.02L25.56 12.70L25.93 12.70Q26.28 12.70 26.37 12.56Q26.45 12.43 26.45 11.86L26.45 11.86Q26.45 11.28 26.37 11.15Q26.28 11.02 25.93 11.02L25.93 11.02ZM25.56 15.48L24.86 15.48L24.86 10.43L26.02 10.43Q26.72 10.43 26.94 10.70Q27.15 10.97 27.15 11.86L27.15 11.86Q27.15 12.74 26.94 13.01Q26.72 13.28 26.02 13.28L26.02 13.28L25.56 13.28L25.56 15.48Z"/><path font-size="7" font-family="BookmanCartridgeTitle" fill="#ffffff" svgjs:data="{&quot;leading&quot;:&quot;1.3&quot;}" d="M28.22 15.48L27.56 15.48L27.56 11.97L28.18 11.97L28.18 12.33L28.19 12.33Q28.31 12.09 28.42 12.01Q28.54 11.93 28.78 11.93L28.78 11.93L28.78 12.58Q28.22 12.58 28.22 13.04L28.22 13.04L28.22 15.48Z"/><path font-size="7" font-family="BookmanCartridgeTitle" fill="#ffffff" svgjs:data="{&quot;leading&quot;:&quot;1.3&quot;}" d="M29.67 15.48L29.01 15.48L29.01 11.97L29.67 11.97L29.67 15.48ZM29.67 11.13L29.01 11.13L29.01 10.43L29.67 10.43L29.67 11.13Z"/><path font-size="7" font-family="BookmanCartridgeTitle" fill="#ffffff" svgjs:data="{&quot;leading&quot;:&quot;1.3&quot;}" d="M30.83 15.48L30.17 15.48L30.17 11.97L30.78 11.97L30.78 12.26L30.80 12.26Q31.00 11.93 31.41 11.93L31.41 11.93Q32.02 11.93 32.02 12.62L32.02 12.62L32.02 15.48L31.37 15.48L31.37 12.74Q31.37 12.43 31.11 12.43L31.11 12.43Q30.83 12.43 30.83 12.80L30.83 12.80L30.83 15.48Z"/><path font-size="7" font-family="BookmanCartridgeTitle" fill="#ffffff" svgjs:data="{&quot;leading&quot;:&quot;1.3&quot;}" d="M32.41 14.65L32.41 14.65L32.41 12.87Q32.41 12.42 32.65 12.17Q32.90 11.93 33.33 11.93L33.33 11.93Q34.19 11.93 34.19 12.63L34.19 12.63L34.19 13.15L33.57 13.15L33.57 12.77Q33.57 12.39 33.32 12.39L33.32 12.39Q33.07 12.39 33.07 12.80L33.07 12.80L33.07 14.73Q33.07 15.06 33.32 15.06L33.32 15.06Q33.57 15.06 33.57 14.72L33.57 14.72L33.57 14.30L34.19 14.30L34.19 14.83Q34.19 15.19 33.91 15.38L33.91 15.38Q33.70 15.52 33.34 15.52L33.34 15.52Q32.41 15.52 32.41 14.65Z"/><path font-size="7" font-family="BookmanCartridgeTitle" fill="#ffffff" svgjs:data="{&quot;leading&quot;:&quot;1.3&quot;}" d="M35.25 15.48L34.59 15.48L34.59 11.97L35.25 11.97L35.25 15.48ZM35.25 11.13L34.59 11.13L34.59 10.43L35.25 10.43L35.25 11.13Z"/><path font-size="7" font-family="BookmanCartridgeTitle" fill="#ffffff" svgjs:data="{&quot;leading&quot;:&quot;1.3&quot;}" d="M36.40 16.76L35.74 16.76L35.74 11.97L36.36 11.97L36.36 12.36L36.37 12.36Q36.53 11.93 36.99 11.93L36.99 11.93Q37.61 11.93 37.61 12.74L37.61 12.74L37.61 14.71Q37.61 15.52 36.99 15.52L36.99 15.52Q36.61 15.52 36.40 15.29L36.40 15.29L36.40 16.76ZM36.40 13.00L36.40 13.00L36.40 14.69Q36.40 15.06 36.67 15.06L36.67 15.06Q36.95 15.06 36.95 14.56L36.95 14.56L36.95 12.91Q36.95 12.43 36.70 12.43L36.70 12.43Q36.40 12.43 36.40 13.00Z"/><path font-size="7" font-family="BookmanCartridgeTitle" fill="#ffffff" svgjs:data="{&quot;leading&quot;:&quot;1.3&quot;}" d="M38.76 15.48L38.10 15.48L38.10 10.43L38.76 10.43L38.76 15.48Z"/><path font-size="7" font-family="BookmanCartridgeTitle" fill="#ffffff" svgjs:data="{&quot;leading&quot;:&quot;1.3&quot;}" d="M39.23 14.65L39.23 14.65L39.23 12.87Q39.23 12.42 39.48 12.17Q39.72 11.93 40.18 11.93L40.18 11.93Q41.14 11.93 41.14 12.80L41.14 12.80L41.14 13.93L39.89 13.93L39.89 14.68Q39.89 15.10 40.21 15.10L40.21 15.10Q40.52 15.10 40.52 14.65L40.52 14.65L40.52 14.33L41.14 14.33L41.14 14.82Q41.14 15.12 40.92 15.31L40.92 15.31Q40.67 15.52 40.16 15.52L40.16 15.52Q39.23 15.52 39.23 14.65ZM39.89 12.73L39.89 12.73L39.89 13.47L40.52 13.47L40.52 12.79Q40.52 12.35 40.21 12.35L40.21 12.35Q39.89 12.35 39.89 12.73Z"/><path font-size="7" font-family="BookmanCartridgeTitle" fill="#ffffff" svgjs:data="{&quot;leading&quot;:&quot;1.3&quot;}" d="M43.21 12.56L43.21 13.10L42.62 13.10L42.62 12.77Q42.62 12.39 42.39 12.39L42.39 12.39Q42.25 12.39 42.20 12.48L42.20 12.48Q42.17 12.54 42.17 12.71L42.17 12.71Q42.17 12.97 42.23 13.07Q42.30 13.18 42.64 13.47L42.64 13.47Q43.03 13.82 43.14 14.01Q43.25 14.20 43.25 14.58L43.25 14.58Q43.25 15.10 43.04 15.31Q42.83 15.52 42.31 15.52L42.31 15.52Q41.52 15.52 41.52 14.80L41.52 14.80L41.52 14.31L42.14 14.31L42.14 14.79Q42.14 15.06 42.38 15.06L42.38 15.06Q42.54 15.06 42.58 14.98Q42.63 14.89 42.63 14.67L42.63 14.67Q42.63 14.38 42.57 14.27Q42.51 14.15 42.23 13.91L42.23 13.91L42.08 13.79Q41.70 13.46 41.62 13.30L41.62 13.30Q41.55 13.17 41.55 12.80L41.55 12.80Q41.55 12.32 41.79 12.11L41.79 12.11Q42.00 11.93 42.46 11.93L42.46 11.93Q43.21 11.93 43.21 12.56L43.21 12.56Z"/><path font-size="7" font-family="BookmanCartridgeTitle" fill="#ffffff" svgjs:data="{&quot;leading&quot;:&quot;1.3&quot;}" d="M4.73 21.15L4.73 21.15L4.73 19.37Q4.73 18.92 4.98 18.67Q5.22 18.43 5.66 18.43L5.66 18.43Q6.60 18.43 6.60 19.30L6.60 19.30L6.60 21.08Q6.60 21.53 6.36 21.78Q6.11 22.02 5.67 22.02L5.67 22.02Q4.73 22.02 4.73 21.15ZM5.39 19.33L5.39 19.33L5.39 21.12Q5.39 21.56 5.67 21.56L5.67 21.56Q5.94 21.56 5.94 21.12L5.94 21.12L5.94 19.33Q5.94 18.89 5.67 18.89L5.67 18.89Q5.39 18.89 5.39 19.33Z"/><path font-size="7" font-family="BookmanCartridgeTitle" fill="#ffffff" svgjs:data="{&quot;leading&quot;:&quot;1.3&quot;}" d="M7.85 21.98L7.19 21.98L7.19 18.93L6.87 18.93L6.87 18.47L7.19 18.47L7.19 17.64Q7.19 17.25 7.36 17.09Q7.53 16.93 8.04 16.93L8.04 16.93L8.26 16.93L8.26 17.43L8.14 17.43Q7.85 17.43 7.85 17.73L7.85 17.73L7.85 18.47L8.26 18.47L8.26 18.93L7.85 18.93L7.85 21.98Z"/><path font-size="7" font-family="BookmanCartridgeTitle" fill="#ffffff" svgjs:data="{&quot;leading&quot;:&quot;1.3&quot;}" d=""/><path font-size="7" font-family="BookmanCartridgeTitle" fill="#ffffff" svgjs:data="{&quot;leading&quot;:&quot;1.3&quot;}" d="M10.50 21.98L9.80 21.98L9.80 16.93L10.50 16.93L10.50 21.98Z"/><path font-size="7" font-family="BookmanCartridgeTitle" fill="#ffffff" svgjs:data="{&quot;leading&quot;:&quot;1.3&quot;}" d="M11.63 21.98L10.97 21.98L10.97 18.47L11.59 18.47L11.59 18.76L11.61 18.76Q11.81 18.43 12.21 18.43L12.21 18.43Q12.83 18.43 12.83 19.12L12.83 19.12L12.83 21.98L12.17 21.98L12.17 19.24Q12.17 18.93 11.92 18.93L11.92 18.93Q11.63 18.93 11.63 19.30L11.63 19.30L11.63 21.98Z"/><path font-size="7" font-family="BookmanCartridgeTitle" fill="#ffffff" svgjs:data="{&quot;leading&quot;:&quot;1.3&quot;}" d="M13.43 21.51L13.43 21.51L13.43 18.93L13.10 18.93L13.10 18.47L13.43 18.47L13.43 17.80L14.09 17.57L14.09 18.47L14.50 18.47L14.50 18.93L14.09 18.93L14.09 21.20Q14.09 21.52 14.40 21.52L14.40 21.52Q14.51 21.52 14.57 21.50L14.57 21.50L14.57 21.96Q14.34 21.98 14.15 21.98L14.15 21.98Q13.43 21.98 13.43 21.51Z"/><path font-size="7" font-family="BookmanCartridgeTitle" fill="#ffffff" svgjs:data="{&quot;leading&quot;:&quot;1.3&quot;}" d="M14.71 21.15L14.71 21.15L14.71 19.37Q14.71 18.92 14.95 18.67Q15.20 18.43 15.66 18.43L15.66 18.43Q16.62 18.43 16.62 19.30L16.62 19.30L16.62 20.43L15.36 20.43L15.36 21.18Q15.36 21.60 15.69 21.60L15.69 21.60Q16.00 21.60 16.00 21.15L16.00 21.15L16.00 20.83L16.62 20.83L16.62 21.32Q16.62 21.62 16.40 21.81L16.40 21.81Q16.15 22.02 15.64 22.02L15.64 22.02Q14.71 22.02 14.71 21.15ZM15.36 19.23L15.36 19.23L15.36 19.97L16.00 19.97L16.00 19.29Q16.00 18.85 15.69 18.85L15.69 18.85Q15.36 18.85 15.36 19.23Z"/><path font-size="7" font-family="BookmanCartridgeTitle" fill="#ffffff" svgjs:data="{&quot;leading&quot;:&quot;1.3&quot;}" d="M17.72 21.98L17.06 21.98L17.06 18.47L17.68 18.47L17.68 18.83L17.69 18.83Q17.81 18.59 17.92 18.51Q18.04 18.43 18.28 18.43L18.28 18.43L18.28 19.08Q17.72 19.08 17.72 19.54L17.72 19.54L17.72 21.98Z"/><path font-size="7" font-family="BookmanCartridgeTitle" fill="#ffffff" svgjs:data="{&quot;leading&quot;:&quot;1.3&quot;}" d="M19.15 21.98L18.49 21.98L18.49 18.47L19.11 18.47L19.11 18.76L19.12 18.76Q19.33 18.43 19.73 18.43L19.73 18.43Q20.35 18.43 20.35 19.12L20.35 19.12L20.35 21.98L19.69 21.98L19.69 19.24Q19.69 18.93 19.44 18.93L19.44 18.93Q19.15 18.93 19.15 19.30L19.15 19.30L19.15 21.98Z"/><path font-size="7" font-family="BookmanCartridgeTitle" fill="#ffffff" svgjs:data="{&quot;leading&quot;:&quot;1.3&quot;}" d="M21.47 19.50L20.81 19.50L20.81 19.19Q20.81 18.43 21.75 18.43L21.75 18.43Q22.68 18.43 22.68 19.28L22.68 19.28L22.68 21.98L22.06 21.98L22.06 21.62Q22.02 21.66 21.96 21.73Q21.91 21.80 21.87 21.83L21.87 21.83Q21.68 22.02 21.40 22.02L21.40 22.02Q21.08 22.02 20.94 21.86L20.94 21.86Q20.76 21.65 20.76 21.06L20.76 21.06Q20.76 20.64 20.78 20.50L20.78 20.50Q20.82 20.19 21.00 20.01L21.00 20.01Q21.13 19.87 21.29 19.84L21.29 19.84Q21.48 19.79 22.02 19.79L22.02 19.79L22.02 19.22Q22.02 18.89 21.75 18.89L21.75 18.89Q21.47 18.89 21.47 19.18L21.47 19.18L21.47 19.50ZM22.02 21.16L22.02 20.25L21.81 20.25Q21.58 20.25 21.50 20.40Q21.42 20.55 21.42 20.97L21.42 20.97Q21.42 21.51 21.57 21.55L21.57 21.55Q21.61 21.56 21.68 21.56L21.68 21.56Q22.02 21.56 22.02 21.16L22.02 21.16Z"/><path font-size="7" font-family="BookmanCartridgeTitle" fill="#ffffff" svgjs:data="{&quot;leading&quot;:&quot;1.3&quot;}" d="M23.83 21.98L23.18 21.98L23.18 16.93L23.83 16.93L23.83 21.98Z"/><path font-size="7" font-family="BookmanCartridgeTitle" fill="#ffffff" svgjs:data="{&quot;leading&quot;:&quot;1.3&quot;}" d=""/><path font-size="7" font-family="BookmanCartridgeTitle" fill="#ffffff" svgjs:data="{&quot;leading&quot;:&quot;1.3&quot;}" d="M26.27 21.98L25.65 21.98L25.65 16.93L26.77 16.93L27.41 20.78L27.42 20.78L28.07 16.93L29.15 16.93L29.15 21.98L28.50 21.98L28.50 17.43L28.48 17.43L27.77 21.98L27.07 21.98L26.28 17.43L26.27 17.43L26.27 21.98Z"/><path font-size="7" font-family="BookmanCartridgeTitle" fill="#ffffff" svgjs:data="{&quot;leading&quot;:&quot;1.3&quot;}" d="M29.62 21.15L29.62 21.15L29.62 19.37Q29.62 18.92 29.87 18.67Q30.12 18.43 30.57 18.43L30.57 18.43Q31.53 18.43 31.53 19.30L31.53 19.30L31.53 20.43L30.28 20.43L30.28 21.18Q30.28 21.60 30.60 21.60L30.60 21.60Q30.92 21.60 30.92 21.15L30.92 21.15L30.92 20.83L31.53 20.83L31.53 21.32Q31.53 21.62 31.32 21.81L31.32 21.81Q31.06 22.02 30.55 22.02L30.55 22.02Q29.62 22.02 29.62 21.15ZM30.28 19.23L30.28 19.23L30.28 19.97L30.92 19.97L30.92 19.29Q30.92 18.85 30.60 18.85L30.60 18.85Q30.28 18.85 30.28 19.23Z"/><path font-size="7" font-family="BookmanCartridgeTitle" fill="#ffffff" svgjs:data="{&quot;leading&quot;:&quot;1.3&quot;}" d="M32.63 19.36L32.63 19.36L32.63 21.10Q32.63 21.60 32.92 21.60L32.92 21.60Q33.19 21.60 33.19 21.23L33.19 21.23L33.19 19.46Q33.19 18.89 32.88 18.89L32.88 18.89Q32.63 18.89 32.63 19.36ZM31.97 21.21L31.97 21.21L31.97 19.24Q31.97 18.43 32.59 18.43L32.59 18.43Q33.00 18.43 33.17 18.72L33.17 18.72L33.19 18.72L33.19 16.93L33.84 16.93L33.84 21.98L33.23 21.98L33.23 21.73L33.21 21.73Q32.99 22.02 32.59 22.02L32.59 22.02Q31.97 22.02 31.97 21.21Z"/><path font-size="7" font-family="BookmanCartridgeTitle" fill="#ffffff" svgjs:data="{&quot;leading&quot;:&quot;1.3&quot;}" d="M34.99 21.98L34.33 21.98L34.33 18.47L34.99 18.47L34.99 21.98ZM34.99 17.63L34.33 17.63L34.33 16.93L34.99 16.93L34.99 17.63Z"/><path font-size="7" font-family="BookmanCartridgeTitle" fill="#ffffff" svgjs:data="{&quot;leading&quot;:&quot;1.3&quot;}" d="M35.40 21.15L35.40 21.15L35.40 19.37Q35.40 18.92 35.64 18.67Q35.89 18.43 36.32 18.43L36.32 18.43Q37.18 18.43 37.18 19.13L37.18 19.13L37.18 19.65L36.56 19.65L36.56 19.27Q36.56 18.89 36.31 18.89L36.31 18.89Q36.06 18.89 36.06 19.30L36.06 19.30L36.06 21.23Q36.06 21.56 36.31 21.56L36.31 21.56Q36.56 21.56 36.56 21.22L36.56 21.22L36.56 20.80L37.18 20.80L37.18 21.33Q37.18 21.69 36.90 21.88L36.90 21.88Q36.69 22.02 36.33 22.02L36.33 22.02Q35.40 22.02 35.40 21.15Z"/><path font-size="7" font-family="BookmanCartridgeTitle" fill="#ffffff" svgjs:data="{&quot;leading&quot;:&quot;1.3&quot;}" d="M38.24 21.98L37.58 21.98L37.58 18.47L38.24 18.47L38.24 21.98ZM38.24 17.63L37.58 17.63L37.58 16.93L38.24 16.93L38.24 17.63Z"/><path font-size="7" font-family="BookmanCartridgeTitle" fill="#ffffff" svgjs:data="{&quot;leading&quot;:&quot;1.3&quot;}" d="M39.40 21.98L38.74 21.98L38.74 18.47L39.35 18.47L39.35 18.76L39.37 18.76Q39.57 18.43 39.98 18.43L39.98 18.43Q40.59 18.43 40.59 19.12L40.59 19.12L40.59 21.98L39.93 21.98L39.93 19.24Q39.93 18.93 39.68 18.93L39.68 18.93Q39.40 18.93 39.40 19.30L39.40 19.30L39.40 21.98Z"/><path font-size="7" font-family="BookmanCartridgeTitle" fill="#ffffff" svgjs:data="{&quot;leading&quot;:&quot;1.3&quot;}" d="M41.04 21.15L41.04 21.15L41.04 19.37Q41.04 18.92 41.29 18.67Q41.54 18.43 41.99 18.43L41.99 18.43Q42.95 18.43 42.95 19.30L42.95 19.30L42.95 20.43L41.70 20.43L41.70 21.18Q41.70 21.60 42.02 21.60L42.02 21.60Q42.34 21.60 42.34 21.15L42.34 21.15L42.34 20.83L42.95 20.83L42.95 21.32Q42.95 21.62 42.73 21.81L42.73 21.81Q42.48 22.02 41.97 22.02L41.97 22.02Q41.04 22.02 41.04 21.15ZM41.70 19.23L41.70 19.23L41.70 19.97L42.34 19.97L42.34 19.29Q42.34 18.85 42.02 18.85L42.02 18.85Q41.70 18.85 41.70 19.23Z"/><path font-size="1.8" font-family="BookmanCartridgeCode" fill="#ffffff" svgjs:data="{&quot;leading&quot;:&quot;1.3&quot;}" d="M37.96 4.17L38.14 4.17L38.14 5.42L37.96 5.42L37.96 4.85L37.36 4.85L37.36 5.42L37.17 5.42L37.17 4.17L37.36 4.17L37.36 4.69L37.96 4.69L37.96 4.17Z"/><path font-size="1.8" font-family="BookmanCartridgeCode" fill="#ffffff" svgjs:data="{&quot;leading&quot;:&quot;1.3&quot;}" d="M39.07 4.17L39.25 4.17L39.80 5.42L39.60 5.42L39.46 5.11L38.86 5.11L38.73 5.42L38.53 5.42L39.07 4.17ZM38.91 4.96L39.40 4.96L39.24 4.55Q39.19 4.44 39.16 4.32L39.16 4.32L39.15 4.32Q39.13 4.40 39.07 4.55L39.07 4.55L38.91 4.96Z"/><path font-size="1.8" font-family="BookmanCartridgeCode" fill="#ffffff" svgjs:data="{&quot;leading&quot;:&quot;1.3&quot;}" d="M40.37 5.42L40.19 5.42L40.19 4.17L40.50 4.17Q40.74 4.17 40.87 4.24Q40.99 4.32 40.99 4.50L40.99 4.50Q40.99 4.73 40.71 4.79L40.71 4.79L40.71 4.79Q40.77 4.82 40.81 4.86Q40.85 4.90 40.88 4.97L40.88 4.97L41.09 5.42L40.89 5.42L40.71 5.02Q40.67 4.93 40.61 4.89Q40.56 4.86 40.43 4.86L40.43 4.86L40.37 4.86L40.37 5.42ZM40.46 4.32L40.37 4.32L40.37 4.71L40.46 4.71Q40.81 4.71 40.81 4.51L40.81 4.51Q40.81 4.40 40.72 4.36Q40.64 4.32 40.46 4.32L40.46 4.32Z"/><path font-size="1.8" font-family="BookmanCartridgeCode" fill="#ffffff" svgjs:data="{&quot;leading&quot;:&quot;1.3&quot;}" d="M41.37 4.88L41.85 4.88L41.85 5.02L41.37 5.02L41.37 4.88Z"/><path font-size="1.8" font-family="BookmanCartridgeCode" fill="#ffffff" svgjs:data="{&quot;leading&quot;:&quot;1.3&quot;}" d="M42.44 4.84L42.44 4.84Q42.41 4.84 42.39 4.84L42.39 4.84L42.39 4.70Q42.40 4.70 42.43 4.70L42.43 4.70Q42.61 4.70 42.71 4.65Q42.81 4.59 42.81 4.49L42.81 4.49Q42.81 4.39 42.74 4.34Q42.67 4.29 42.55 4.29L42.55 4.29Q42.42 4.29 42.27 4.35L42.27 4.35L42.26 4.20Q42.40 4.15 42.56 4.15L42.56 4.15Q42.76 4.15 42.88 4.23Q42.99 4.32 42.99 4.48L42.99 4.48Q42.99 4.60 42.90 4.68Q42.81 4.75 42.67 4.77L42.67 4.77L42.67 4.77Q42.81 4.78 42.91 4.87Q43.00 4.95 43.00 5.09L43.00 5.09Q43.00 5.25 42.88 5.35Q42.75 5.45 42.54 5.45L42.54 5.45Q42.37 5.45 42.22 5.39L42.22 5.39L42.23 5.23Q42.39 5.31 42.53 5.31L42.53 5.31Q42.66 5.31 42.74 5.25Q42.82 5.19 42.82 5.07L42.82 5.07Q42.82 4.84 42.44 4.84Z"/><path font-size="1.8" font-family="BookmanCartridgeCode" fill="#ffffff" svgjs:data="{&quot;leading&quot;:&quot;1.3&quot;}" d="M43.83 4.15L43.83 4.15Q44.04 4.15 44.14 4.32Q44.25 4.49 44.25 4.81L44.25 4.81Q44.25 4.99 44.21 5.13Q44.17 5.27 44.07 5.36Q43.97 5.45 43.82 5.45L43.82 5.45Q43.67 5.45 43.57 5.36Q43.48 5.27 43.44 5.12Q43.40 4.98 43.40 4.79L43.40 4.79Q43.40 4.48 43.51 4.31Q43.62 4.15 43.83 4.15ZM43.83 4.29L43.83 4.29Q43.71 4.29 43.65 4.42Q43.58 4.55 43.58 4.79L43.58 4.79Q43.58 5.04 43.65 5.17Q43.71 5.30 43.83 5.30L43.83 5.30Q43.95 5.30 44.01 5.17Q44.07 5.04 44.07 4.79L44.07 4.79Q44.07 4.55 44.00 4.42Q43.94 4.29 43.83 4.29Z"/><path font-size="1.8" font-family="BookmanCartridgeCode" fill="#ffffff" svgjs:data="{&quot;leading&quot;:&quot;1.3&quot;}" d="M45.03 4.15L45.03 4.15Q45.24 4.15 45.34 4.32Q45.45 4.49 45.45 4.81L45.45 4.81Q45.45 4.99 45.41 5.13Q45.37 5.27 45.27 5.36Q45.17 5.45 45.02 5.45L45.02 5.45Q44.87 5.45 44.78 5.36Q44.68 5.27 44.64 5.12Q44.60 4.98 44.60 4.79L44.60 4.79Q44.60 4.48 44.71 4.31Q44.82 4.15 45.03 4.15ZM45.03 4.29L45.03 4.29Q44.91 4.29 44.85 4.42Q44.78 4.55 44.78 4.79L44.78 4.79Q44.78 5.04 44.85 5.17Q44.91 5.30 45.03 5.30L45.03 5.30Q45.15 5.30 45.21 5.17Q45.27 5.04 45.27 4.79L45.27 4.79Q45.27 4.55 45.20 4.42Q45.14 4.29 45.03 4.29Z"/><path font-size="1.8" font-family="BookmanCartridgeCode" fill="#ffffff" svgjs:data="{&quot;leading&quot;:&quot;1.3&quot;}" d="M46.38 4.75L46.38 4.75Q46.53 4.81 46.60 4.89Q46.67 4.97 46.67 5.09L46.67 5.09Q46.67 5.25 46.54 5.35Q46.41 5.45 46.22 5.45L46.22 5.45Q46.02 5.45 45.90 5.35Q45.78 5.26 45.78 5.10L45.78 5.10Q45.78 4.98 45.85 4.90Q45.92 4.82 46.07 4.76L46.07 4.76Q45.93 4.70 45.87 4.63Q45.81 4.57 45.81 4.46L45.81 4.46Q45.81 4.32 45.92 4.23Q46.04 4.15 46.23 4.15L46.23 4.15Q46.41 4.15 46.52 4.23Q46.63 4.31 46.63 4.46L46.63 4.46Q46.63 4.64 46.38 4.75ZM46.25 4.70L46.25 4.70Q46.44 4.62 46.44 4.47L46.44 4.47Q46.44 4.38 46.38 4.33Q46.32 4.28 46.22 4.28Q46.13 4.28 46.06 4.33Q45.99 4.38 45.99 4.46L45.99 4.46Q45.99 4.55 46.06 4.60Q46.12 4.66 46.25 4.70ZM46.20 4.83L46.20 4.83Q45.97 4.91 45.97 5.09L45.97 5.09Q45.97 5.19 46.04 5.25Q46.11 5.31 46.22 5.31Q46.33 5.31 46.41 5.25Q46.48 5.19 46.48 5.09L46.48 5.09Q46.48 5.00 46.41 4.94Q46.34 4.88 46.20 4.83Z"/></svg>