<svg height="50pt" fill="#fff" viewBox="150 18 180 53" width="200pt" xmlns="http://www.w3.org/2000/svg">
    <path d="m168.40625 27.175781h7.027344c3.601562 0 5.828125.550781 5.828125 4.136719v9.117188c0 2.789062-1.199219 3.785156-4.113281 3.886718v.097656c2.628906.097657 4.285156.847657 4.285156 3.335938v11.261719c0 3.585937-2.226563 4.132812-6 4.132812h-7.027344zm6.285156 15.894531c1.773438 0 2.800782-.449218 2.800782-2.59375v-8.070312c0-2.089844-1.257813-2.441406-3.199219-2.441406h-2.117188v13.105468zm-.226562 17.285157c1.941406 0 3.199218-.347657 3.199218-2.441407v-9.863281c0-1.746093-1.199218-2.191406-2.972656-2.191406h-2.515625v14.496094z"/>
    <path d="m190.847656 32.957031c0-3.539062 1.542969-6.078125 6.628906-6.078125 5.085938 0 6.628907 2.539063 6.628907 6.078125v24.410157c0 3.535156-1.542969 6.078124-6.628907 6.078124-5.085937 0-6.628906-2.542968-6.628906-6.078124zm3.769532 24.308594c0 1.992187.460937 3.390625 2.859374 3.390625 2.398438 0 2.855469-1.398438 2.855469-3.390625v-24.210937c0-1.992188-.457031-3.386719-2.855469-3.386719-2.398437 0-2.859374 1.394531-2.859374 3.386719z"/>
    <path d="m213.359375 32.957031c0-3.539062 1.542969-6.078125 6.628906-6.078125 5.085938 0 6.625 2.539063 6.625 6.078125v24.410157c0 3.535156-1.539062 6.078124-6.625 6.078124-5.085937 0-6.628906-2.542968-6.628906-6.078124zm3.769531 24.308594c0 1.992187.460938 3.390625 2.859375 3.390625 2.398438 0 2.855469-1.398438 2.855469-3.390625v-24.210937c0-1.992188-.457031-3.386719-2.855469-3.386719-2.398437 0-2.859375 1.394531-2.859375 3.386719z"/>
    <path d="m244.328125 27.175781h3.769531l-5.425781 16.441407 5.941406 19.527343h-3.773437l-5.082032-18.03125h-.117187v18.03125h-3.769531v-35.96875h3.769531v15.445313h.117187z"/>
    <path d="m269.515625 27.175781h5.828125v35.96875h-3.3125v-33.179687h-.117188l-4.339843 33.179687h-4.6875l-4.339844-33.179687h-.117187v33.179687h-3.3125v-35.96875h5.828124l4.226563 32.183594h.113281z"/>
    <path d="m291.046875 53.183594h-6.628906l-1.539063 9.960937h-3.773437l6.058593-35.96875h5.140626l6.058593 35.96875h-3.773437zm-3.257813-23.515625h-.113281l-2.855469 20.722656h5.828126z"/>
    <path d="m310.519531 27.175781h3.3125v35.96875h-5.371093l-4.742188-31.980469h-.113281v31.980469h-3.3125v-35.96875h5.484375l4.628906 30.789063h.113281z"/>
    <g stroke="#fff" transform="matrix(.997174 0 0 -.99977 -334.000746 334.744005)">
        <path d="m521.153391 285.817646c1.531673 0 2.777381 2.227075 2.777381 4.969894 0 2.746727-1.245708 4.969895-2.777381 4.969895-1.53559 0-2.777381-2.223168-2.777381-4.969895 0-2.742819 1.241791-4.969894 2.777381-4.969894zm0 0"/>
        <path d="m544.003128 285.817646c1.531673 0 2.777381 2.227075 2.777381 4.969894 0 2.746727-1.245708 4.969895-2.777381 4.969895-1.53559 0-2.777381-2.223168-2.777381-4.969895 0-2.742819 1.241791-4.969894 2.777381-4.969894zm0 0"/>
        <path d="m566.848948 285.817646c1.53559 0 2.777381 2.227075 2.777381 4.969894 0 2.746727-1.241791 4.969895-2.777381 4.969895-1.531672 0-2.777381-2.223168-2.777381-4.969895 0-2.742819 1.245709-4.969894 2.777381-4.969894zm0 0"/>
        <path d="m584.743274 285.817646c1.53559 0 2.777381 2.227075 2.777381 4.969894 0 2.746727-1.241791 4.969895-2.777381 4.969895-1.531673 0-2.777381-2.223168-2.777381-4.969895 0-2.742819 1.245708-4.969894 2.777381-4.969894zm0 0"/>
    </g>
    <g stroke="#fff" stroke-width="3" fill="none">
        <path d="m 155 20 l 172 0 l 0 51 l -172 0 z"/>
    </g>
</svg>