<svg xmlns="http://www.w3.org/2000/svg" xmlns:xlink="http://www.w3.org/1999/xlink" viewBox="42 18 170 40"><path d="m44.851562 19.238281h19.296876v6.632813h-8.5v5.609375h7.480468v6.121093h-7.480468v9.773438h-10.796876z" fill="#e22739"/><path d="m64.488281 26.039062v21.335938h10.453125v-14.363281h3.742188v-7.480469c-2.125 0-3.0625.339844-4.421875 1.785156v-1.277344z" fill="#e22739"/><path d="m91.347656 47.375h9.605469v-16.914062c0-2.722657-1.273437-4.929688-5.441406-4.929688h-10.113281c-3.402344 0-5.867188 1.699219-5.867188 4.757812v2.804688h9.777344v-3.3125h2.039062v5.097656h-7.988281c-2.890625 0-4.589844 2.636719-4.589844 5.015625v2.71875c0 1.871094 1.527344 4.761719 4.078125 4.761719h6.289063v-9.519531h2.210937z" fill="#e22739"/><path d="m115.574219 29.269531v18.105469h10.113281v-9.859375h-6.457031v-2.039063h6.457031v-5.695312c0-2.042969-.847656-4.167969-4.332031-4.167969h-3.65625c-2.296875 0-3.996094 1.023438-4.421875 2.125v-1.785156h-10.027344v21.421875h10.199219v-18.105469z" fill="#e22739"/><path d="m128.070312 19.15625h9.605469v13.003906l3.90625-6.207031h9.777344l-5.953125 9.523437h-17.335938z" fill="#e22739"/><path d="m128.070312 47.375h9.519532v-9.859375h-9.519532zm0 0" fill="#e22739"/><path d="m139.96875 47.375h9.859375v-9.859375h-9.859375zm0 0" fill="#e22739"/><path d="m152.207031 37.515625h9.859375v9.859375h-9.859375zm0 0" fill="#e22739"/><path d="m152.207031 19.15625h9.859375v16.320312h-9.859375zm0 0" fill="#e22739"/><path d="m164.449219 37.515625h9.773437v9.859375h-9.773437zm0 0" fill="#e22739"/><path d="m164.449219 25.953125h9.773437v9.523437h-9.773437zm0 0" fill="#e22739"/><path d="m204.332031 27.625v-1.441406h.675781c.398438 0 .6875.058594.871094.179687.179688.117188.269532.308594.269532.570313 0 .242187-.085938.417968-.257813.527344-.171875.109374-.457031.164062-.859375.164062zm2.394531-.007812c.179688-.207032.269532-.464844.269532-.773438 0-.398438-.15625-.695312-.460938-.898438-.308594-.199218-.769531-.296874-1.378906-.296874h-1.65625v4.371093h.832031v-1.875h.8125l.890625 1.875h.9375l-.988281-2.003906c.316406-.054687.566406-.1875.742187-.398437zm1.457032 1.59375c-.167969.398437-.40625.753906-.71875 1.0625-.328125.316406-.699219.558593-1.121094.726562-.417969.171875-.855469.253906-1.3125.253906-.429688 0-.851562-.085937-1.265625-.261718-.410156-.171876-.777344-.417969-1.097656-.734376-.3125-.3125-.554688-.667968-.726563-1.078124-.171875-.40625-.257812-.828126-.257812-1.265626 0-.445312.089844-.878906.265625-1.292968.175781-.414063.425781-.785156.75-1.109375.304687-.304688.664062-.539063 1.066406-.703125.40625-.164063.835937-.246094 1.296875-.246094.453125 0 .886719.082031 1.304688.253906.414062.167969.78125.40625 1.097656.71875.316406.320313.558594.683594.726562 1.09375.164063.410156.246094.847656.246094 1.316406 0 .441407-.085938.863282-.253906 1.265626zm-4.8125-4.777344c-.515625.25-.960938.613281-1.332032 1.085937-.269531.351563-.476562.730469-.617187 1.140625-.144531.40625-.210937.824219-.210937 1.246094 0 .507812.09375.992188.289062 1.457031.191406.464844.46875.878907.832031 1.242188.371094.375.789063.660156 1.261719.859375.472656.195312.960938.296875 1.46875.296875.496094 0 .980469-.101563 1.453125-.296875.46875-.195313.894531-.480469 1.273437-.847656.367188-.351563.644532-.761719.835938-1.226563s.289062-.960937.289062-1.484375c0-.601562-.128906-1.167969-.390624-1.703125-.257813-.53125-.625-.980469-1.09375-1.347656-.339844-.261719-.707032-.460938-1.113282-.597657-.402344-.136718-.820312-.203124-1.253906-.203124-.609375 0-1.171875.125-1.691406.378906" fill="#e22739"/><path d="m188.929688 37.515625h10.113281v9.859375h-10.113281zm0 0" fill="#e22739"/><path d="m176.605469 35.476562v-9.523437h10.027343v1.785156c.425782-1.101562 2.125-2.125 4.421876-2.125h3.652343c3.488281 0 4.335938 2.125 4.335938 4.167969v5.695312h-10.113281v-6.207031h-2.125v6.207031z" fill="#e22739"/><path d="m176.605469 37.515625h10.199219v9.859375h-10.199219zm0 0" fill="#e22739"/></svg>