<svg xmlns="http://www.w3.org/2000/svg" xmlns:xlink="http://www.w3.org/1999/xlink" width="180" height="50" viewBox="0 0 180 50" version="1.2">
<g transform="translate(-220,-615)">
<path style="fill-rule:nonzero;fill: #fff;fill-opacity:1;stroke-width:0.993;stroke-linecap:butt;stroke-linejoin:miter;stroke: #00b3ac;stroke-opacity:1;stroke-miterlimit:4;" d="M 166.400594 24.727593 L 211.602325 24.727593 L 211.602325 48.073455 L 166.400594 48.073455 Z M 166.400594 24.727593 " transform="matrix(1.859805,0,0,-1.840195,0,706.57)"/>
<path style="fill:none;stroke-width:1.609;stroke-linecap:round;stroke-linejoin:round;stroke: #00b3ac;stroke-opacity:1;stroke-miterlimit:4;" d="M 165.215994 36.152164 L 174.01858 36.152164 L 175.829086 42.127669 L 177.639591 29.272373 L 179.811358 36.152164 L 186.511489 36.152164 L 188.321995 42.308101 L 190.1325 29.454929 L 192.123637 36.152164 L 198.279776 36.152164 L 200.090282 42.308101 L 202.62541 29.454929 L 204.435915 36.515152 L 211.486806 36.515152 " transform="matrix(1.859805,0,0,-1.840195,0,706.57)"/>
<path style="fill-rule:nonzero;fill: #00b3ac;stroke-width:0.993;stroke-linecap:butt;stroke-linejoin:miter;stroke: #00b3ac;stroke-opacity:1;stroke-miterlimit:4;" d="M 121.198862 24.727593 L 166.896277 24.727593 L 166.896277 48.073455 L 121.198862 48.073455 Z M 121.198862 24.727593 " transform="matrix(1.859805,0,0,-1.840195,0,706.57)"/>
<g>
  <path fill="#fff" transform="translate(229.097155,652.836195)" d="M 3.203125 -23.4375 C 3.5 -23.328125 3.71875 -23.1875 3.859375 -22.984375 C 4 -22.765625 4.078125 -22.125 4.109375 -21.03125 C 4.15625 -19.515625 4.171875 -17.96875 4.171875 -16.40625 L 4.171875 -8.34375 C 4.140625 -5.28125 4.09375 -3.640625 4.09375 -3.390625 C 4.0625 -2.484375 3.96875 -1.9375 3.828125 -1.703125 C 3.71875 -1.53125 3.5 -1.390625 3.203125 -1.28125 C 2.890625 -1.1875 2.046875 -1.125 0.671875 -1.109375 L 0.671875 0 L 5.046875 -0.140625 L 9.296875 0 L 9.296875 -1.109375 C 7.875 -1.125 7.03125 -1.1875 6.734375 -1.28125 C 6.4375 -1.390625 6.234375 -1.546875 6.09375 -1.765625 C 5.953125 -1.96875 5.875 -2.609375 5.84375 -3.71875 C 5.78125 -5.21875 5.765625 -6.75 5.765625 -8.34375 L 5.765625 -20.546875 L 14.1875 -3.25 L 15.375 -0.734375 C 15.5 -0.453125 15.640625 -0.109375 15.796875 0.328125 L 16.484375 0.328125 C 17.265625 -1.546875 17.859375 -2.9375 18.25 -3.8125 C 18.765625 -5 19.53125 -6.578125 20.484375 -8.546875 L 26.546875 -21.125 L 26.546875 -8.34375 C 26.5 -5.28125 26.453125 -3.640625 26.453125 -3.390625 C 26.421875 -2.484375 26.34375 -1.9375 26.203125 -1.703125 C 26.09375 -1.53125 25.875 -1.390625 25.578125 -1.28125 C 25.265625 -1.1875 24.421875 -1.125 23.03125 -1.109375 L 23.03125 0 C 25.703125 -0.109375 27.453125 -0.15625 28.234375 -0.15625 C 29.203125 -0.15625 30.875 -0.109375 33.25 0 L 33.25 -1.109375 C 31.84375 -1.125 31 -1.1875 30.703125 -1.28125 C 30.40625 -1.390625 30.1875 -1.546875 30.046875 -1.765625 C 29.90625 -1.96875 29.84375 -2.609375 29.796875 -3.71875 C 29.75 -5.21875 29.734375 -6.75 29.734375 -8.34375 L 29.734375 -16.40625 C 29.765625 -19.46875 29.796875 -21.09375 29.828125 -21.34375 C 29.84375 -22.234375 29.921875 -22.796875 30.078125 -23.03125 C 30.1875 -23.203125 30.40625 -23.328125 30.703125 -23.4375 C 31 -23.53125 31.84375 -23.59375 33.25 -23.625 L 33.25 -24.734375 C 31.484375 -24.6875 30.203125 -24.671875 29.4375 -24.671875 C 28.578125 -24.671875 27.515625 -24.6875 26.28125 -24.734375 C 25.71875 -23.296875 24.625 -20.875 23 -17.5 L 16.984375 -5.046875 L 10.3125 -18.625 C 9.453125 -20.375 8.5 -22.40625 7.484375 -24.734375 C 6.421875 -24.6875 5.328125 -24.671875 4.203125 -24.671875 C 3.078125 -24.671875 1.90625 -24.6875 0.671875 -24.734375 L 0.671875 -23.625 C 2.0625 -23.59375 2.90625 -23.53125 3.203125 -23.4375 Z M 3.203125 -23.4375 "/>
  <path fill="#fff" transform="translate(263.1764,652.836195)" d="M 5.078125 -0.140625 L 10.1875 0 C 11.875 0 13.328125 -0.21875 14.5625 -0.703125 C 16.21875 -1.328125 17.5625 -2.28125 18.609375 -3.59375 C 19.671875 -4.890625 20.203125 -6.40625 20.203125 -8.125 C 20.203125 -9 20.03125 -9.78125 19.75 -10.5 C 19.453125 -11.1875 19.015625 -11.796875 18.453125 -12.296875 C 17.890625 -12.78125 17.1875 -13.15625 16.34375 -13.40625 C 15.5 -13.65625 14.390625 -13.84375 13.015625 -13.984375 C 14.046875 -14.21875 14.890625 -14.5 15.515625 -14.8125 C 16.15625 -15.125 16.734375 -15.53125 17.265625 -16.015625 C 17.78125 -16.5 18.1875 -17.09375 18.515625 -17.78125 C 18.828125 -18.4375 18.984375 -19.171875 18.984375 -19.9375 C 18.984375 -20.890625 18.71875 -21.765625 18.1875 -22.546875 C 17.65625 -23.328125 16.9375 -23.90625 16.03125 -24.25 C 15.09375 -24.59375 13.78125 -24.78125 12.0625 -24.78125 L 5.59375 -24.625 L 1.9375 -24.703125 C 1.34375 -24.703125 0.859375 -24.703125 0.46875 -24.734375 L 0.46875 -23.640625 C 1.6875 -23.625 2.5 -23.53125 2.890625 -23.375 C 3.046875 -23.3125 3.171875 -23.1875 3.25 -23.046875 C 3.359375 -22.8125 3.453125 -22.21875 3.5 -21.265625 C 3.578125 -19.71875 3.609375 -18.390625 3.609375 -17.25 L 3.609375 -6.75 C 3.609375 -6.15625 3.578125 -5.296875 3.515625 -4.15625 C 3.46875 -3.03125 3.40625 -2.296875 3.34375 -1.953125 C 3.296875 -1.71875 3.21875 -1.5625 3.15625 -1.484375 C 3.0625 -1.390625 2.65625 -1.171875 1.9375 -0.8125 L 1.9375 0 C 3.484375 -0.09375 4.515625 -0.140625 5.078125 -0.140625 Z M 6.953125 -18.609375 C 6.953125 -20.625 7 -22.109375 7.109375 -23.09375 C 7.984375 -23.265625 8.9375 -23.34375 9.9375 -23.34375 C 11.734375 -23.34375 13.09375 -23.015625 14.015625 -22.375 C 14.953125 -21.734375 15.421875 -20.6875 15.421875 -19.234375 C 15.421875 -18.40625 15.265625 -17.6875 14.984375 -17.078125 C 14.703125 -16.453125 14.34375 -15.96875 13.921875 -15.609375 C 13.46875 -15.25 12.859375 -14.953125 12.0625 -14.75 C 11.28125 -14.515625 10.15625 -14.421875 8.703125 -14.421875 C 8.203125 -14.421875 7.625 -14.4375 6.953125 -14.46875 Z M 6.953125 -6.4375 L 6.953125 -13.046875 C 7.71875 -13.078125 8.375 -13.109375 8.890625 -13.109375 C 11.0625 -13.109375 12.65625 -12.90625 13.59375 -12.5 C 14.546875 -12.09375 15.265625 -11.484375 15.765625 -10.65625 C 16.234375 -9.8125 16.484375 -8.8125 16.484375 -7.59375 C 16.484375 -6.359375 16.21875 -5.265625 15.703125 -4.3125 C 15.203125 -3.359375 14.484375 -2.640625 13.53125 -2.171875 C 12.578125 -1.703125 11.328125 -1.484375 9.78125 -1.484375 C 8.796875 -1.484375 7.875 -1.578125 7 -1.796875 C 6.96875 -4.25 6.953125 -5.796875 6.953125 -6.4375 Z M 6.953125 -6.4375 "/>
  <path fill="#fff" transform="translate(285.186137,652.836195)" d="M 7.453125 0.5 C 10.515625 0.5 13.03125 -0.34375 14.96875 -2.078125 C 16.90625 -3.78125 17.875 -5.796875 17.875 -8.109375 C 17.875 -9.09375 17.703125 -9.921875 17.359375 -10.65625 C 17.015625 -11.390625 16.59375 -11.953125 16.0625 -12.40625 C 15.53125 -12.859375 14.703125 -13.25 13.625 -13.578125 C 12.4375 -13.78125 11.125 -14 9.65625 -14.1875 C 8.1875 -14.375 7.125 -14.59375 6.484375 -14.8125 C 5.546875 -15.125 4.890625 -15.5625 4.546875 -16.109375 C 4.171875 -16.640625 4 -17.40625 4 -18.40625 C 4 -20.046875 4.484375 -21.359375 5.5 -22.390625 C 6.53125 -23.421875 7.875 -23.9375 9.59375 -23.9375 C 10.890625 -23.9375 12.15625 -23.59375 13.375 -22.921875 C 13.859375 -22.578125 14.265625 -22.21875 14.5625 -21.796875 C 14.640625 -21.625 14.6875 -20.65625 14.71875 -18.875 L 15.921875 -18.875 C 15.953125 -20.09375 16.015625 -21.03125 16.078125 -21.65625 C 16.15625 -22.28125 16.25 -22.984375 16.4375 -23.71875 C 15.40625 -24.203125 14.296875 -24.578125 13.125 -24.84375 C 11.953125 -25.109375 10.859375 -25.25 9.875 -25.25 C 8.21875 -25.25 6.671875 -24.890625 5.265625 -24.234375 C 3.859375 -23.5625 2.78125 -22.609375 2.0625 -21.390625 C 1.34375 -20.171875 0.984375 -18.890625 0.984375 -17.53125 C 0.984375 -16.59375 1.15625 -15.703125 1.515625 -14.90625 C 1.859375 -14.078125 2.34375 -13.421875 2.921875 -12.9375 C 3.484375 -12.4375 4.375 -12 5.609375 -11.625 C 6.53125 -11.421875 7.640625 -11.25 8.9375 -11.09375 C 10.234375 -10.921875 11.09375 -10.8125 11.546875 -10.734375 C 12.234375 -10.609375 12.8125 -10.359375 13.28125 -10.015625 C 13.734375 -9.65625 14.09375 -9.234375 14.328125 -8.671875 C 14.546875 -8.109375 14.671875 -7.453125 14.671875 -6.6875 C 14.671875 -5.671875 14.4375 -4.734375 13.984375 -3.859375 C 13.53125 -3 12.796875 -2.28125 11.8125 -1.734375 C 10.796875 -1.203125 9.71875 -0.9375 8.53125 -0.9375 C 7.71875 -0.9375 6.875 -1.0625 6.015625 -1.34375 C 5.140625 -1.625 4.453125 -1.9375 3.9375 -2.28125 C 3.40625 -2.625 3.09375 -2.9375 2.953125 -3.25 C 2.8125 -3.5625 2.734375 -4.5625 2.671875 -6.265625 L 1.484375 -6.265625 C 1.4375 -3.765625 1.3125 -1.96875 1.140625 -0.859375 C 3.03125 0.046875 5.140625 0.5 7.453125 0.5 Z M 7.453125 0.5 "/>
</g>
</g>
</svg>